<svg xmlns="http://www.w3.org/2000/svg" xmlns:xlink="http://www.w3.org/1999/xlink" width="86.994" height="104.115" viewBox="0 0 86.994 104.115">
  <defs>
    <linearGradient id="linear-gradient" x1="-8.637" y1="2.845" x2="-8.637" y2="1.763" gradientUnits="objectBoundingBox">
      <stop offset="0" stop-color="#799323"/>
      <stop offset="0.458" stop-color="#748e21"/>
      <stop offset="0.94" stop-color="#69821e"/>
      <stop offset="1" stop-color="#67801e"/>
    </linearGradient>
    <linearGradient id="linear-gradient-2" x1="0.921" y1="-0.355" x2="0.921" y2="-1.291" xlink:href="#linear-gradient"/>
    <linearGradient id="linear-gradient-3" x1="-0.068" y1="-0.194" x2="0.994" y2="0.964" gradientUnits="objectBoundingBox">
      <stop offset="0.034" stop-color="#f2cf77"/>
      <stop offset="1" stop-color="#e8a34c"/>
    </linearGradient>
    <linearGradient id="linear-gradient-4" x1="0.041" y1="0.179" x2="1.02" y2="0.884" xlink:href="#linear-gradient-3"/>
    <linearGradient id="linear-gradient-5" x1="0.028" y1="0.415" x2="0.863" y2="0.78" gradientUnits="objectBoundingBox">
      <stop offset="0" stop-color="#faab83"/>
      <stop offset="1" stop-color="#fb6750"/>
    </linearGradient>
    <linearGradient id="linear-gradient-6" x1="1.439" y1="0.232" x2="-0.152" y2="1" gradientUnits="objectBoundingBox">
      <stop offset="0.005" stop-color="#f49519"/>
      <stop offset="1" stop-color="#ffbe2e"/>
    </linearGradient>
    <linearGradient id="linear-gradient-7" x1="0.582" y1="0.581" x2="0.312" y2="-0.275" gradientUnits="objectBoundingBox">
      <stop offset="0.006" stop-color="#3d3d3d"/>
      <stop offset="1" stop-color="#2b2b2b"/>
    </linearGradient>
    <linearGradient id="linear-gradient-8" x1="0.36" y1="-0.134" x2="0.782" y2="0.942" xlink:href="#linear-gradient-7"/>
    <linearGradient id="linear-gradient-9" x1="0.939" y1="0.538" x2="-0.106" y2="0.321" gradientUnits="objectBoundingBox">
      <stop offset="0" stop-color="#273d9b"/>
      <stop offset="1" stop-color="#1d91d8"/>
    </linearGradient>
    <linearGradient id="linear-gradient-10" x1="0.4" y1="0.892" x2="0.63" y2="0.118" xlink:href="#linear-gradient-3"/>
    <linearGradient id="linear-gradient-11" x1="0.42" y1="0.936" x2="0.583" y2="0.091" xlink:href="#linear-gradient-5"/>
    <linearGradient id="linear-gradient-12" x1="0.424" y1="0.928" x2="0.607" y2="0.099" xlink:href="#linear-gradient-5"/>
    <linearGradient id="linear-gradient-13" x1="0.555" y1="-0.847" x2="1.266" y2="-0.18" xlink:href="#linear-gradient-3"/>
    <linearGradient id="linear-gradient-14" x1="0.589" y1="-1.152" x2="1.303" y2="-0.38" xlink:href="#linear-gradient-5"/>
    <linearGradient id="linear-gradient-15" x1="3.832" y1="-8.482" x2="4.494" y2="-7.96" xlink:href="#linear-gradient-5"/>
    <linearGradient id="linear-gradient-16" x1="0.474" y1="0.134" x2="0.604" y2="1.586" xlink:href="#linear-gradient-7"/>
    <linearGradient id="linear-gradient-17" x1="0.474" y1="0.118" x2="0.771" y2="1.528" xlink:href="#linear-gradient-9"/>
    <linearGradient id="linear-gradient-18" x1="0.539" y1="0.083" x2="0.496" y2="1.098" xlink:href="#linear-gradient-9"/>
    <linearGradient id="linear-gradient-19" x1="0.518" y1="0.082" x2="0.498" y2="1.101" xlink:href="#linear-gradient-9"/>
    <linearGradient id="linear-gradient-20" x1="1.282" y1="0.376" x2="0.748" y2="0.532" xlink:href="#linear-gradient-6"/>
    <linearGradient id="linear-gradient-21" x1="0.819" y1="0.017" x2="0.157" y2="1.241" xlink:href="#linear-gradient-6"/>
    <linearGradient id="linear-gradient-22" x1="0" y1="0.5" x2="1" y2="0.5" xlink:href="#linear-gradient-6"/>
    <linearGradient id="linear-gradient-23" x1="0" y1="0.5" x2="1" y2="0.5" xlink:href="#linear-gradient-6"/>
    <linearGradient id="linear-gradient-24" x1="0.702" y1="-1.405" x2="0.216" y2="2.152" xlink:href="#linear-gradient-9"/>
    <linearGradient id="linear-gradient-25" x1="-0.674" y1="-1.341" x2="-0.674" y2="-2.297" gradientUnits="objectBoundingBox">
      <stop offset="0" stop-color="#f0cab6"/>
      <stop offset="0.421" stop-color="#f0cca1"/>
      <stop offset="0.989" stop-color="#f2cf8a"/>
    </linearGradient>
    <linearGradient id="linear-gradient-26" x1="-1.031" y1="-1.819" x2="-0.357" y2="-1.819" gradientUnits="objectBoundingBox">
      <stop offset="0.492" stop-color="#fff"/>
      <stop offset="0.612" stop-color="#fefbfb"/>
      <stop offset="0.732" stop-color="#fbf0ef"/>
      <stop offset="0.852" stop-color="#f6dfdb"/>
      <stop offset="0.972" stop-color="#efc6bf"/>
      <stop offset="0.994" stop-color="#eec1b9"/>
    </linearGradient>
    <linearGradient id="linear-gradient-27" x1="-2.256" y1="-10.172" x2="-1.426" y2="-10.172" gradientUnits="objectBoundingBox">
      <stop offset="0" stop-color="#799323"/>
      <stop offset="0.368" stop-color="#748e21"/>
      <stop offset="0.756" stop-color="#69821e"/>
      <stop offset="0.804" stop-color="#67801e"/>
      <stop offset="1" stop-color="#919323"/>
    </linearGradient>
    <radialGradient id="radial-gradient" cx="0.504" cy="0.466" r="0.761" gradientTransform="matrix(0.462, -0.394, 0.214, 0.992, 4.127, -0.464)" gradientUnits="objectBoundingBox">
      <stop offset="0.011" stop-color="#f9ebd7"/>
      <stop offset="1" stop-color="#f8e7c3"/>
    </radialGradient>
    <linearGradient id="linear-gradient-28" x1="-1.54" y1="-8.037" x2="-1.54" y2="-8.363" gradientUnits="objectBoundingBox">
      <stop offset="0.006" stop-color="#cd8e92"/>
      <stop offset="1" stop-color="#fff"/>
    </linearGradient>
    <linearGradient id="linear-gradient-29" x1="-1.027" y1="-2.571" x2="-1.027" y2="-3.518" gradientUnits="objectBoundingBox">
      <stop offset="0" stop-color="#f6e1d6"/>
      <stop offset="0.989" stop-color="#f9ebd7"/>
    </linearGradient>
    <linearGradient id="linear-gradient-30" x1="0.045" y1="0.241" x2="1.025" y2="0.241" xlink:href="#linear-gradient-3"/>
    <linearGradient id="linear-gradient-31" x1="0" y1="0.5" x2="1" y2="0.5" xlink:href="#linear-gradient-5"/>
    <linearGradient id="linear-gradient-32" x1="0.505" y1="0.078" x2="0.49" y2="1.099" xlink:href="#linear-gradient-5"/>
    <linearGradient id="linear-gradient-33" x1="0.503" y1="0.073" x2="0.495" y2="1.106" xlink:href="#linear-gradient-5"/>
    <linearGradient id="linear-gradient-35" x1="-0.131" y1="0.241" x2="1.03" y2="0.241" xlink:href="#linear-gradient-5"/>
    <linearGradient id="linear-gradient-36" x1="-0.02" y1="0.5" x2="1" y2="0.5" xlink:href="#linear-gradient-5"/>
    <linearGradient id="linear-gradient-37" x1="-1.639" y1="-7.764" x2="-1.639" y2="-8.163" xlink:href="#linear-gradient-3"/>
    <linearGradient id="linear-gradient-38" x1="-2.378" y1="-13.371" x2="-1.222" y2="-13.371" gradientUnits="objectBoundingBox">
      <stop offset="0" stop-color="#c07121"/>
      <stop offset="0.989" stop-color="#c17847"/>
    </linearGradient>
    <linearGradient id="linear-gradient-39" x1="-2.187" y1="-10.293" x2="-1.099" y2="-10.293" gradientUnits="objectBoundingBox">
      <stop offset="0.011" stop-color="#ab581c"/>
      <stop offset="1" stop-color="#9e3d0e"/>
    </linearGradient>
    <linearGradient id="linear-gradient-40" x1="-16.593" y1="-34.601" x2="-16.593" y2="-35.671" gradientUnits="objectBoundingBox">
      <stop offset="0" stop-color="#db7e34"/>
      <stop offset="0.989" stop-color="#d07e47"/>
    </linearGradient>
    <linearGradient id="linear-gradient-41" x1="-1.733" y1="-10.466" x2="-1.733" y2="-10.971" gradientUnits="objectBoundingBox">
      <stop offset="0" stop-color="#fff"/>
      <stop offset="0.213" stop-color="#fdfbfb"/>
      <stop offset="0.425" stop-color="#f7f1ef"/>
      <stop offset="0.637" stop-color="#eee0db"/>
      <stop offset="0.847" stop-color="#e1c8bf"/>
      <stop offset="0.994" stop-color="#d7b4a7"/>
    </linearGradient>
    <linearGradient id="linear-gradient-42" x1="0.16" y1="0.327" x2="1.171" y2="1.088" xlink:href="#linear-gradient-5"/>
    <linearGradient id="linear-gradient-43" x1="0.453" y1="0.774" x2="0.591" y2="-0.272" xlink:href="#linear-gradient-3"/>
    <linearGradient id="linear-gradient-44" x1="0.387" y1="0.456" x2="0.716" y2="0.622" xlink:href="#linear-gradient-5"/>
    <linearGradient id="linear-gradient-45" x1="0.374" y1="0.478" x2="0.689" y2="0.619" xlink:href="#linear-gradient-5"/>
    <linearGradient id="linear-gradient-46" x1="0.395" y1="0.479" x2="0.612" y2="0.552" xlink:href="#linear-gradient-5"/>
  </defs>
  <g id="Group_9065" data-name="Group 9065" transform="translate(-1293 -862)">
    <g id="Group_9063" data-name="Group 9063" transform="translate(1 -9)">
      <g id="Group_9064" data-name="Group 9064">
        <g id="Group_9062" data-name="Group 9062">
          <g id="Group_9061" data-name="Group 9061">
            <g id="Group_9060" data-name="Group 9060" transform="translate(37)">
              <g id="Group_8965" data-name="Group 8965" transform="translate(639.333 489.724)">
                <g id="Group_8964" data-name="Group 8964" transform="translate(615.667 381.276)">
                  <g id="Group_8946" data-name="Group 8946" transform="translate(0 41.502)">
                    <path id="Path_32114" data-name="Path 32114" d="M660.858,569.833a33.737,33.737,0,0,1-4.36-8.332,41.222,41.222,0,0,0-2.98-7.059,34.266,34.266,0,0,1-1.772-4.2,17.845,17.845,0,0,0-1.913-3.951,60.512,60.512,0,0,0-6.183-7.58,22.748,22.748,0,0,0-8.267-6.061c-2.975-1.178-6.409-1.273-9.528-1.911-2.367-.484-4.682-1.1-7.041-1.592-1.1-.229-2.116-.382-3.107-.635-.227.542.595,1.183.814,1.652a23.189,23.189,0,0,1,1.073,3.1c.44,1.476,1.074,2.869,1.444,4.364.461,1.866.763,3.81,1.29,5.658.519,1.819,1.147,3.695,1.5,5.553a27.884,27.884,0,0,0,1.889,4.922,5.779,5.779,0,0,0,1.376,2.418,12.985,12.985,0,0,1,1.527,1.837,5.247,5.247,0,0,0,1.561,1.537,7.62,7.62,0,0,1,1.612,1.435,21.968,21.968,0,0,0,5.348,3.441,29.128,29.128,0,0,0,4.786,1.669c1.73.542,3.108,1.39,4.749,2.058,1.614.657,3.192,1.4,4.822,2.039,2.165.853,4.9,1.768,7.241,1.111C658.07,570.935,658.979,569.879,660.858,569.833Z" transform="translate(-615.668 -528.516)" fill-rule="evenodd" fill="url(#linear-gradient)"/>
                    <path id="Path_32115" data-name="Path 32115" d="M661.031,574.273c-4.909-4.065-9.587-8.306-14.135-12.772-2.211-2.171-4.272-4.476-6.451-6.669-1.053-1.061-2.146-1.98-3.115-3.133-.822-.979-1.446-2.063-2.32-3-1.73-1.861-2.954-4.091-4.612-5.978a30.954,30.954,0,0,0-4.685-3.925c-1.405-1.071-2.8-2.206-4.248-3.192-.527-.359-1.065-.687-1.551-1.073-.337-.267-.54-.759-1.06-.436-.059.658.983,1.434,1.306,1.952a22.488,22.488,0,0,1,2.058,4.7c1.1,3.31,1.8,6.772,3.269,9.938.477,1.032.823,2.093,1.283,3.123.415.93.51,1.841.89,2.764A18.031,18.031,0,0,0,629,559.321c.626,1.009,1.437,1.733,2.137,2.673,1.381,1.855,3.584,3.238,5.527,4.51,1.813,1.187,4.048,1.7,5.941,2.752,1.246.694,2.4,1.235,3.668,1.813a29.566,29.566,0,0,0,8.163,2.656c1.252.174,2.479.276,3.708.381.952.081,2.268.436,3.179.078C661.332,574.084,661.343,573.984,661.031,574.273Z" transform="translate(-617.955 -532.443)" fill="#fff" fill-rule="evenodd" opacity="0.3" style="mix-blend-mode: soft-light;isolation: isolate"/>
                    <path id="Path_32116" data-name="Path 32116" d="M641.5,535.894c1.395-.13,2.331-.405,3.548.359a6.589,6.589,0,0,1,2.2,2.652c1.311,2.617,1.714,5.816,2.22,8.663a34.731,34.731,0,0,1,.422,4.178c.027.526.014,1.558-.55,1.833-.447.218-.54-.074-.917-.342-.2-.145-.481-.2-.671-.345a9.07,9.07,0,0,1-.684-.776,27.9,27.9,0,0,1-3.485-3.639c-1.242-1.785-2.616-3.524-3.995-5.212a23.243,23.243,0,0,0-2.237-2.259c-.981-.914-1.958-1.943-2.987-2.789-.835-.687-1.788-1.372-2.688-1.969a11.416,11.416,0,0,1-1.025-.738c-.243-.2-.826-.42-.895-.774-.172-.881.953-.58,1.388-.483,1.177.262,2.433.51,3.624.678,1.561.22,3,.6,4.595.689C640.7,535.693,642.058,535.855,641.5,535.894Z" transform="translate(-625.771 -532.544)" fill="#997b54" fill-rule="evenodd" opacity="0.2" style="mix-blend-mode: multiply;isolation: isolate"/>
                    <path id="Path_32117" data-name="Path 32117" d="M723.092,610.189a10.225,10.225,0,0,0,1.149,1.764c.305.336.686.567,1.008.879.883.855,1.765,1.662,2.607,2.564.736.789,1.6,1.537,2.409,2.254.841.746,1.561,1.6,2.472,2.275.61.455,3.793,2.384,3.187.233a15.093,15.093,0,0,0-1.72-2.878c-.357-.648-.8-1.251-1.135-1.912-.264-.528-.38-1.1-.611-1.638-.5-1.16-.978-2.3-1.424-3.486-.262-.7-.716-1.3-.947-2.006a17.827,17.827,0,0,0-.852-2.3,10.157,10.157,0,0,0-2.343-3.549c-.7-.546-.945-.139-.918.655a11.937,11.937,0,0,0,.7,3.478,2.077,2.077,0,0,1-.044,2.041,3.77,3.77,0,0,1-2.29,1.038C723.819,609.688,722.175,610.095,723.092,610.189Z" transform="translate(-692.617 -581.384)" fill="#997b54" fill-rule="evenodd" opacity="0.2" style="mix-blend-mode: multiply;isolation: isolate"/>
                  </g>
                  <g id="Group_8947" data-name="Group 8947" transform="translate(26.859 21.275)">
                    <path id="Path_32118" data-name="Path 32118" d="M722.192,498.766c-1.871-1.624-4.3-3.269-5.675-5.422-1.585-2.475-2.342-5.49-3.345-8.235a31.291,31.291,0,0,1,.306-23.827c.666-1.52,1.6-2.959,2.248-4.525a20.4,20.4,0,0,1,2.617,2.708,25.043,25.043,0,0,1,4.588,7c2.376,5.44,4.108,10.282,4.076,16.249a51.088,51.088,0,0,1-1.717,11.653,18.739,18.739,0,0,1-.519,2.274,8.371,8.371,0,0,1-.859,1.31c-.323.592-.26,1.247-.543,1.82C722.99,500.536,722.18,500.438,722.192,498.766Z" transform="translate(-710.958 -456.756)" fill-rule="evenodd" fill="url(#linear-gradient-2)"/>
                    <path id="Path_32119" data-name="Path 32119" d="M716.858,457.658a29.447,29.447,0,0,0,.218,4.436,31.693,31.693,0,0,1,.309,3.54,45.047,45.047,0,0,0,1.217,6.38c.421,1.85.64,3.747,1.017,5.608.232,1.145.654,2.226.851,3.378a22.98,22.98,0,0,0,1.24,3.343,61.861,61.861,0,0,1,2.247,9.755c.17,1.106.519,2.154.6,3.27a11.467,11.467,0,0,1-.255,3.092,15.678,15.678,0,0,1-.888-1.707,10.542,10.542,0,0,0-1.354-2.436,8.832,8.832,0,0,0-1.258-1.573,6.728,6.728,0,0,1-2.535-3.167q-.247-.118-.492-.239-.134-.37-.281-.734c-.122-.306-.314-.607-.425-.907a17.324,17.324,0,0,1-.9-2.312,11.964,11.964,0,0,0-1.316-3.414A24.491,24.491,0,0,1,713.829,481a14.5,14.5,0,0,1-.822-2.744,20.031,20.031,0,0,1-.121-2.5,3.478,3.478,0,0,1-.073-.9c.086-.645-.005-1.11.023-1.734.024-.519.2-1.016.2-1.557a6.416,6.416,0,0,1,.2-1.638c.307-1.229.255-2.407.477-3.62.186-1.014.491-2.015.719-3.021C714.713,462.085,715.35,461.1,716.858,457.658Z" transform="translate(-712.28 -457.404)" fill="#fff" fill-rule="evenodd" opacity="0.3" style="mix-blend-mode: soft-light;isolation: isolate"/>
                    <path id="Path_32120" data-name="Path 32120" d="M728.715,463.014a20.253,20.253,0,0,0,.242,7.129c.2.8.724,1.484.975,2.266.218.68.225,1.383.448,2.062.2.616.628,2.406,1.1,2.783,1.023.815,1.348-.43,1.664-1.052.906-1.788.57-2.933.3-4.9a5.136,5.136,0,0,0-1.567-3.553c-.47-.439-1.091-.713-1.567-1.191-.631-.635-1.094-1.479-2.028-1.706Z" transform="translate(-723.399 -461.25)" fill="#997b54" fill-rule="evenodd" opacity="0.2" style="mix-blend-mode: multiply;isolation: isolate"/>
                    <path id="Path_32121" data-name="Path 32121" d="M752.229,522.1c-.294,3.049-1.207,6.944-.1,9.919.7,1.9,2.074.57,2.656-.574,1.183-2.324,1.459-8.024-1.631-9.128Z" transform="translate(-740.141 -503.685)" fill="#997b54" fill-rule="evenodd" opacity="0.2" style="mix-blend-mode: multiply;isolation: isolate"/>
                  </g>
                  <g id="Group_8963" data-name="Group 8963" transform="translate(1.794 0)">
                    <path id="Path_32122" data-name="Path 32122" d="M657.816,532.886A5.2,5.2,0,0,0,654.832,527c-1.753-.7-3.384-2.91-4.716-2.84s-.7,2.078.915,3.563S657.816,532.886,657.816,532.886Z" transform="translate(-641.682 -483.883)" fill="url(#linear-gradient-3)"/>
                    <path id="Path_32123" data-name="Path 32123" d="M686.056,569.822s-5.468,11.853-11.749,11.876c-4.954.018-7.573-9.72-11.8-16.039-1.624-2.43-3.9-2.86-4.782-3.542.882-.949,4-3.438,4-3.438l11.17,9.912,4.08-5.695Z" transform="translate(-647.665 -508.676)" fill="url(#linear-gradient-4)"/>
                    <path id="Path_32124" data-name="Path 32124" d="M713.311,573.643l-3.4,4.622a12.339,12.339,0,0,1,2.3,8.211c-.53,2.12-1.71,4.519-3.891,5.21a5.191,5.191,0,0,0,2.321.758c6.281-.023,11.749-11.876,11.749-11.876Z" transform="translate(-683.997 -519.422)" opacity="0.7" fill="url(#linear-gradient-5)" style="mix-blend-mode: multiply;isolation: isolate"/>
                    <g id="Group_8948" data-name="Group 8948" transform="translate(26.372 39.488)">
                      <path id="Path_32125" data-name="Path 32125" d="M729.953,521.371c-5.777,1.577-14.359,15.935-14.359,15.935,1.046,1.284,6.566,8.23,13.218,8.55Z" transform="translate(-715.594 -521.371)" fill="#86aa34"/>
                      <path id="Path_32126" data-name="Path 32126" d="M743.3,521.371a6.383,6.383,0,0,0-1.483.645c.551.934-2.511,17.026-7.635,20.509a15.624,15.624,0,0,0,7.978,3.331Z" transform="translate(-728.946 -521.371)" opacity="0.4" fill="url(#linear-gradient-6)" style="mix-blend-mode: multiply;isolation: isolate"/>
                      <path id="Path_32127" data-name="Path 32127" d="M717.588,574.672c1.83,2.266,6.625,6.858,11.64,7.779" transform="translate(-717.026 -559.648)" fill="none" stroke="#fff" stroke-miterlimit="10" stroke-width="1.153"/>
                    </g>
                    <path id="Path_32128" data-name="Path 32128" d="M793.56,516.259l-9.794-6.879-19.136,1.513-6.767,1.867c-3.271,11.952-4.312,23.742-2.565,32.664,2.348,12,.194,16.253.194,16.253,15.186,8.633,29.919-1.735,29.919-1.735-5.786-9.972-1.5-20.6.208-24.631l1.738,5.119c5.774,1.89,14.977-3.185,14.977-3.185C799.275,528.631,797.906,519.43,793.56,516.259Z" transform="translate(-717.132 -473.272)" fill="#9abf44"/>
                    <path id="Path_32129" data-name="Path 32129" d="M781.97,558.949c-1.325,2.651-4.031,4.915-6.682,5.246-6.55.624-14.569,1.191-19.736-3.919-1.091,7.593-1.268,14.87-.118,20.745,2.348,12,.194,16.253.194,16.253,15.186,8.633,29.919-1.735,29.919-1.735-4.844-8.35-2.63-17.159-.777-22.17C781.323,569.68,780.927,563.9,781.97,558.949Z" transform="translate(-717.269 -508.869)" fill="#86aa34" opacity="0.4" style="mix-blend-mode: multiply;isolation: isolate"/>
                    <path id="Path_32130" data-name="Path 32130" d="M787.119,556.6c-5.15,16.346-17.68,18.887-33.606,14.494a68.41,68.41,0,0,0,1.105,8.241c2.348,12,.194,16.253.194,16.253,15.186,8.633,29.919-1.735,29.919-1.735-5.786-9.972-1.5-20.6.208-24.631l1.738,5.119c3.321,1.087,7.774-.13,10.961-1.361C789.99,573.471,785.793,564.854,787.119,556.6Z" transform="translate(-716.453 -507.181)" fill="#86aa34"/>
                    <path id="Path_32131" data-name="Path 32131" d="M843.015,420.681c1.875,4.541-2.819,10.592-4.033,11.556a7.92,7.92,0,0,0-1.857,2.142l-2.784-15.85,4.942-4.552Z" transform="translate(-774.498 -404.76)" fill="url(#linear-gradient-7)"/>
                    <path id="Path_32132" data-name="Path 32132" d="M867.616,423.737c4.7,5.84,1.3,10.28.792,13.115-.4,2.23-2.795,5.527-1.186,9.279-11.34-2.948-2.9-19.148-7.526-21.51-1.815-1.639-2.109-4-.189-4.346C861.591,419.9,865.435,421.029,867.616,423.737Z" transform="translate(-791.628 -409.232)" fill="url(#linear-gradient-8)"/>
                    <path id="Path_32133" data-name="Path 32133" d="M866.655,442.607c-1.942-.77,2.661-8.568-1.263-13.109-.189,3.779-.884,9.957-1.481,9.07-1.984-2.955,1.04-4.818-.764-10.176a19.534,19.534,0,0,1-1.129-3.659c-.185-1.442.018-2.881-.488-4.24a5.135,5.135,0,0,0-2.025-.154c-1.92.347-1.626,2.706.189,4.346,4.629,2.362-3.814,18.561,7.526,21.51A7.71,7.71,0,0,1,866.655,442.607Z" transform="translate(-791.628 -409.295)" fill="#2b2b2b"/>
                    <path id="Path_32134" data-name="Path 32134" d="M758.9,423.478c-3.267,2.274,2.417,4.736,7.912,2.933,4.592-1.508.332-6.415.332-6.415L762.16,421.1Z" transform="translate(-719.635 -409.082)" fill="#9abf44"/>
                    <path id="Path_32135" data-name="Path 32135" d="M767.212,420l-4.987,1.107-3.257,2.375a2.023,2.023,0,0,0-.934,1.174c2.547-1.671,5.844-.028,7.455,2.125a12.365,12.365,0,0,0,1.39-.366C771.473,424.9,767.212,420,767.212,420Z" transform="translate(-719.7 -409.082)" opacity="0.4" fill="url(#linear-gradient-9)" style="mix-blend-mode: multiply;isolation: isolate"/>
                    <path id="Path_32136" data-name="Path 32136" d="M809.926,467.622s-.246,9.338,1.235,11.576c-4.767,3.307-12.7,11.965-12.7,11.965-4.347-7.2-2.664-10.6-1.848-11.771s1.087-4.173,1.087-4.173Z" transform="translate(-746.678 -443.284)" fill="url(#linear-gradient-10)"/>
                    <path id="Path_32137" data-name="Path 32137" d="M806.64,519.084c1.374-1.482,8.179-8.732,12.449-11.694a3.034,3.034,0,0,1-.262-.51C814.148,510.119,808.566,514,806.64,519.084Z" transform="translate(-754.605 -471.477)" opacity="0.5" fill="url(#linear-gradient-11)" style="mix-blend-mode: multiply;isolation: isolate"/>
                    <path id="Path_32138" data-name="Path 32138" d="M810.735,472.175c-.1-2.449-.045-4.553-.045-4.553l-12.226,7.6s-.272,3.006-1.087,4.173a5.588,5.588,0,0,0-.618,4.026C802.646,482.421,808.856,477.54,810.735,472.175Z" transform="translate(-747.441 -443.284)" opacity="0.7" fill="url(#linear-gradient-12)" style="mix-blend-mode: multiply;isolation: isolate"/>
                    <g id="Group_8950" data-name="Group 8950" transform="translate(44.731 7.039)">
                      <path id="Path_32139" data-name="Path 32139" d="M802.75,419.479c-.693-1.182-2.34-.734-3-.384.718-2.63,1.188-4.514,1.188-4.514s1.237-6.343-8.008-7.976c-8.566-1.513-10.9,1.92-11.98,7.931a43.6,43.6,0,0,0,.182,10.162c.492,2.856,2.491,6.809,5.264,7.821,2,.729,8.69-1.767,11.264-6.353C800.554,426.749,803.943,421.515,802.75,419.479Z" transform="translate(-780.729 -406.249)" fill="url(#linear-gradient-13)"/>
                      <path id="Path_32140" data-name="Path 32140" d="M803.025,428.226c-.693-1.182-2.34-.734-3-.384.718-2.63,1.188-4.514,1.188-4.514s-11.568-2.867-19.677-4.9c-2.362,9.165,5.712,8.95,10.424,10.109,5.515,1.356,4.9,7.964-3.052,12.679,4.374-.208,8.632-5.123,9.027-6.305C800.829,435.5,804.218,430.262,803.025,428.226Z" transform="translate(-781.004 -414.996)" opacity="0.3" fill="url(#linear-gradient-14)" style="mix-blend-mode: multiply;isolation: isolate"/>
                      <g id="Group_8949" data-name="Group 8949" transform="translate(18.425 14.158)">
                        <path id="Path_32141" data-name="Path 32141" d="M846.712,457.282c.994.539,3.013-2.491,2.877.624" transform="translate(-846.539 -456.477)" fill="none" stroke="#707070" stroke-linecap="round" stroke-linejoin="round" stroke-width="0.995" style="mix-blend-mode: multiply;isolation: isolate"/>
                        <path id="Path_32142" data-name="Path 32142" d="M846.608,457.412c.842.941-.187,1.776-.46,2.136s.587.775,1.454.051a3.3,3.3,0,0,0,.846-3.026A9.771,9.771,0,0,1,846.608,457.412Z" transform="translate(-846.097 -456.545)" opacity="0.6" fill="url(#linear-gradient-15)" style="mix-blend-mode: multiply;isolation: isolate"/>
                      </g>
                    </g>
                    <path id="Path_32143" data-name="Path 32143" d="M766.955,413.776c-1.657,2.736-3.465,5.293-6.948,5.811,1.151.808,2.6,1.6,4.555.5a5.973,5.973,0,0,0,5.954,4.223s-4-1.445-2.016-4.791a6.706,6.706,0,0,0,5.826,5.009s-3.139-4.489-1.543-5.779c0,0-.411,4.2,6.268,5.531-1.623-1.186-.954-3.732-.954-3.732.743,2.48,2.575,2.6,4.008,3.962s-.171,5.754.116,5.895c.588.288,4.962-3.49,3.292-11S766.955,413.776,766.955,413.776Z" transform="translate(-721.117 -404.466)" fill="url(#linear-gradient-16)"/>
                    <path id="Path_32144" data-name="Path 32144" d="M785.6,390.615s1.242-5.591,2.029-6.685c.964-1.339,7.184-2.654,9.187-2.654s10.577,3.477,12.189,6.545c1.706,3.248-.575,12.188-.575,12.188l-4.07-3.745Z" transform="translate(-739.495 -381.276)" fill="#9abf44"/>
                    <path id="Path_32145" data-name="Path 32145" d="M839.483,388.058c-1.458-2.774-8.605-5.882-11.443-6.452,2.111.886,6.59,3.031,7.526,5.839a14.6,14.6,0,0,1-.329,9.484l3.671,3.317S841.19,391.306,839.483,388.058Z" transform="translate(-769.973 -381.513)" opacity="0.3" fill="url(#linear-gradient-17)" style="mix-blend-mode: multiply;isolation: isolate"/>
                    <g id="Group_8951" data-name="Group 8951" transform="translate(39.268 8.127)">
                      <path id="Path_32146" data-name="Path 32146" d="M761.348,416.749c7.519-4.654,12.324,4.293,18.333,3.232a66.362,66.362,0,0,0,8.345-1.994c-8.108-9.141-17-7.48-19.557-6.769A78.365,78.365,0,0,1,761.348,416.749Z" transform="translate(-761.348 -410.481)" fill="#9abf44"/>
                      <path id="Path_32147" data-name="Path 32147" d="M791.72,410.524c5.151.969,10.683,3.474,11.66,8.639a53.154,53.154,0,0,1,6.457-1.546C802.387,409.218,794.831,409.723,791.72,410.524Z" transform="translate(-783.159 -410.109)" fill="#86aa34" opacity="0.4" style="mix-blend-mode: multiply;isolation: isolate"/>
                    </g>
                    <path id="Path_32148" data-name="Path 32148" d="M779.051,515.612c-2.205,2.983-11.578,16.742-3.68,25.267a1.028,1.028,0,0,1,.275.833c-.309,2.35-1.534,12.763.2,18.131,0,0,5.88,5.909,8.089,20.073H740.152c-1.215-9.8,5.96-16.511,5.573-21.454-.591-7.557-4.565-25.707,2.492-44.136a.244.244,0,0,1,.18-.152l3.737-.748a.241.241,0,0,1,.277.312,65.486,65.486,0,0,0-3.152,16.284c4.418,3.976,16.4,2.237,16.4,2.237s4.193-13.227,9.731-19.139a.677.677,0,0,1,.854-.116l2.62,1.634A.675.675,0,0,1,779.051,515.612Z" transform="translate(-706.758 -475.801)" fill="#9abf44"/>
                    <path id="Path_32149" data-name="Path 32149" d="M836.972,563.64c-1.738-5.368-.512-15.781-.2-18.131a1.028,1.028,0,0,0-.275-.833c-7.9-8.526,1.474-22.284,3.68-25.267a.675.675,0,0,0-.185-.974l-.393-.245c-9.259,6.915-11.478,19.336-8.339,29.381,1.325,5.3,1.656,9.94,0,14.91-.663,1.657,0,3.645.994,5.3,1.657,2.32,2.319,5.633.663,8.284a19.193,19.193,0,0,1-7.787,7.648h19.937C842.853,569.549,836.972,563.64,836.972,563.64Z" transform="translate(-767.88 -479.598)" opacity="0.3" fill="url(#linear-gradient-18)" style="mix-blend-mode: multiply;isolation: isolate"/>
                    <path id="Path_32150" data-name="Path 32150" d="M775.85,559.843c-1.738-5.368-.512-15.781-.2-18.131a1.028,1.028,0,0,0-.275-.833c-7.9-8.526,1.474-22.284,3.68-25.267a.675.675,0,0,0-.185-.974L776.246,513a.677.677,0,0,0-.854.116c-5.538,5.912-9.731,19.139-9.731,19.139s-1.014.146-2.557.257c-2.069,8.37-10.269,12.968-18.56,15.276.415,4.473.984,8.159,1.18,10.67.387,4.943-6.788,11.653-5.573,21.454h43.788C781.73,565.753,775.85,559.843,775.85,559.843Z" transform="translate(-706.758 -475.801)" opacity="0.3" fill="url(#linear-gradient-19)" style="mix-blend-mode: multiply;isolation: isolate"/>
                    <path id="Path_32151" data-name="Path 32151" d="M782.661,537.231s-2.957-3.358-4.8-3.377c-2.559-.025-4.267,2.872-4.267,2.872s.608-3.587,2.927-4.8S782.661,537.231,782.661,537.231Z" transform="translate(-730.877 -489.352)" fill="#86aa34"/>
                    <g id="Group_8952" data-name="Group 8952" transform="translate(42.335 34.787)">
                      <path id="Path_32152" data-name="Path 32152" d="M781.677,517.785s-2.918-3.372-4.378-4.136c-2.529-1.326-5.07,3.466-5.07,3.466,1.381-8.062,8.165-12.421,8.165-12.421S777.982,512.323,781.677,517.785Z" transform="translate(-772.229 -504.694)" fill="#9abf44"/>
                      <path id="Path_32153" data-name="Path 32153" d="M792.25,504.694a16.028,16.028,0,0,0-3.512,3.165c1.976,1.824,1.795,5.707,3.195,8.187.892.921,1.6,1.739,1.6,1.739C789.837,512.323,792.25,504.694,792.25,504.694Z" transform="translate(-784.085 -504.694)" opacity="0.4" fill="url(#linear-gradient-20)" style="mix-blend-mode: multiply;isolation: isolate"/>
                    </g>
                    <path id="Path_32154" data-name="Path 32154" d="M805.75,544.18s4.432-3.708,9.751,3.195l.682-2.54a6.445,6.445,0,0,0-5.217-3.384A6.045,6.045,0,0,0,805.75,544.18Z" transform="translate(-753.966 -496.301)" fill="#86aa34"/>
                    <g id="Group_8953" data-name="Group 8953" transform="translate(51.784 34.256)">
                      <path id="Path_32155" data-name="Path 32155" d="M805.75,516.432c3.391-3.929,10.247.349,10.488,2.919,0,0,4.5-13.608,4.716-14.69s-3.113-1.852-3.113-1.852a4.87,4.87,0,0,0,.609,1.658C817.771,504.945,808.687,510.167,805.75,516.432Z" transform="translate(-805.75 -502.809)" fill="#9abf44"/>
                      <path id="Path_32156" data-name="Path 32156" d="M819.658,508.027c.72-1.757,1.237-3.071,1.3-3.365.218-1.081-3.113-1.852-3.113-1.852a4.87,4.87,0,0,0,.609,1.658c-.678.479-9.763,5.7-12.7,11.965a5.178,5.178,0,0,1,.837-.795C808.2,512.528,815.2,508.4,819.658,508.027Z" transform="translate(-805.75 -502.809)" opacity="0.4" fill="url(#linear-gradient-21)" style="mix-blend-mode: multiply;isolation: isolate"/>
                    </g>
                    <path id="Path_32157" data-name="Path 32157" d="M801.09,549.729l-1.918.4-.787,6.633" transform="translate(-748.677 -502.248)" fill="none" stroke="#707070" stroke-miterlimit="10" stroke-width="1.176" opacity="0.8" style="mix-blend-mode: multiply;isolation: isolate"/>
                    <g id="Group_8954" data-name="Group 8954" transform="translate(50.89 48.975)">
                      <path id="Path_32158" data-name="Path 32158" d="M803.766,555.624a.594.594,0,1,1-.594-.593A.594.594,0,0,1,803.766,555.624Z" transform="translate(-802.579 -555.031)" opacity="0.8" fill="url(#linear-gradient-22)" style="mix-blend-mode: multiply;isolation: isolate"/>
                      <path id="Path_32159" data-name="Path 32159" d="M803.693,555.588a.557.557,0,1,1-.557-.557A.557.557,0,0,1,803.693,555.588Z" transform="translate(-802.579 -555.031)" fill="#fff"/>
                    </g>
                    <g id="Group_8955" data-name="Group 8955" transform="translate(50.466 51.709)">
                      <path id="Path_32160" data-name="Path 32160" d="M802.264,565.323a.594.594,0,1,1-.594-.594A.594.594,0,0,1,802.264,565.323Z" transform="translate(-801.076 -564.729)" opacity="0.8" fill="url(#linear-gradient-23)" style="mix-blend-mode: multiply;isolation: isolate"/>
                      <path id="Path_32161" data-name="Path 32161" d="M802.19,565.286a.557.557,0,1,1-.557-.557A.557.557,0,0,1,802.19,565.286Z" transform="translate(-801.076 -564.729)" fill="#fff"/>
                    </g>
                    <path id="Path_32162" data-name="Path 32162" d="M761,573.643l-.288,2.466a1.89,1.89,0,0,1-2,1.666l-2.348-.156" transform="translate(-718.497 -519.422)" fill="none" stroke="#707070" stroke-miterlimit="10" stroke-width="1.176" style="mix-blend-mode: multiply;isolation: isolate"/>
                    <path id="Path_32163" data-name="Path 32163" d="M830.044,581.579l-.351,2.033a1.81,1.81,0,0,0,1.385,2.074l2.372.537a1.81,1.81,0,0,0,2.175-1.413h0" transform="translate(-771.141 -525.121)" fill="none" stroke="#707070" stroke-miterlimit="10" stroke-width="1.176" style="mix-blend-mode: multiply;isolation: isolate"/>
                    <path id="Path_32164" data-name="Path 32164" d="M761.258,577.274a1.012,1.012,0,1,1-1.012-1.012A1.012,1.012,0,0,1,761.258,577.274Z" transform="translate(-720.561 -521.302)" fill="#fff"/>
                    <path id="Path_32165" data-name="Path 32165" d="M838.671,584.879a1.012,1.012,0,1,1-1.012-1.012A1.012,1.012,0,0,1,838.671,584.879Z" transform="translate(-776.155 -526.764)" fill="#fff"/>
                    <path id="Path_32166" data-name="Path 32166" d="M772.229,577.905s5.682,3.745,16.455,1.68" transform="translate(-729.894 -522.482)" fill="none" stroke="#707070" stroke-miterlimit="10" stroke-width="0.882" stroke-dasharray="2.351" style="mix-blend-mode: multiply;isolation: isolate"/>
                    <path id="Path_32167" data-name="Path 32167" d="M770.575,645.4s11.495.791,18.157-.341a27.74,27.74,0,0,1-9.9,2.347A17.886,17.886,0,0,1,770.575,645.4Z" transform="translate(-728.706 -570.707)" opacity="0.7" fill="url(#linear-gradient-24)" style="mix-blend-mode: multiply;isolation: isolate"/>
                    <path id="Path_32168" data-name="Path 32168" d="M770.575,645.4a43.536,43.536,0,0,0,18.157-.341l.832,13.468a4.586,4.586,0,0,1-2.62,4.433,16.682,16.682,0,0,1-7.258,1.565,15.832,15.832,0,0,1-5.967-1.078,4.571,4.571,0,0,1-2.815-4.124Z" transform="translate(-728.706 -570.707)" fill="#86aa34"/>
                    <path id="Path_32169" data-name="Path 32169" d="M790.362,658.526l-.832-13.468a34.721,34.721,0,0,1-4.676.865c-.855,6.584-6.8,10.952-13.169,12.655l.018.744a4.571,4.571,0,0,0,2.815,4.124,15.832,15.832,0,0,0,5.967,1.078,16.68,16.68,0,0,0,7.257-1.565A4.586,4.586,0,0,0,790.362,658.526Z" transform="translate(-729.503 -570.707)" fill="#9abf44"/>
                    <g id="Group_8956" data-name="Group 8956" transform="translate(41.674 63.108)">
                      <path id="Path_32170" data-name="Path 32170" d="M782.362,620.522a8.024,8.024,0,0,0-3.853-1.528l-1.041-2-1.785.769-1.786.77.732,2.133a8.063,8.063,0,0,0-1.545,3.854c-.064,1.907,6.813,17.872,6.813,17.872l5.358-2.309,5.358-2.309S783.786,621.787,782.362,620.522Z" transform="translate(-772.181 -613.662)" fill-rule="evenodd" fill="url(#linear-gradient-25)"/>
                      <path id="Path_32171" data-name="Path 32171" d="M782.9,620.522a8.024,8.024,0,0,0-3.853-1.528l-1.041-2-1.785.769-1.786.77.732,2.133a10.51,10.51,0,0,0-1.335,4.084c-.064,1.906,6.6,17.642,6.6,17.642l5.358-2.309,5.358-2.309S784.321,621.787,782.9,620.522Z" transform="translate(-772.716 -613.662)" fill-rule="evenodd" fill="url(#linear-gradient-26)" style="mix-blend-mode: multiply;isolation: isolate"/>
                      <path id="Path_32172" data-name="Path 32172" d="M771.539,610.732a18.678,18.678,0,0,1,4.221-1.819l-1.406-3.74a9.065,9.065,0,0,0-4.472,1.944Z" transform="translate(-769.882 -605.173)" fill-rule="evenodd" fill="url(#linear-gradient-27)"/>
                      <path id="Path_32173" data-name="Path 32173" d="M774.165,620.657a16.363,16.363,0,0,1,5.156-2.269l-.518.678-.117-.129a7.166,7.166,0,0,0-3.692,1.591l.061.114Z" transform="translate(-772.958 -614.663)" fill="#e9a488" fill-rule="evenodd"/>
                      <path id="Path_32174" data-name="Path 32174" d="M773.545,619.515l-.243-.416a19.632,19.632,0,0,1,5.34-2.3l.059.448A13.1,13.1,0,0,0,773.545,619.515Z" transform="translate(-772.338 -613.521)" fill-rule="evenodd" fill="url(#radial-gradient)"/>
                      <path id="Path_32175" data-name="Path 32175" d="M774.444,617.193a1.981,1.981,0,0,0,.272.365c.058.02,1.669-1,2.588-1.412a3.659,3.659,0,0,1,1.508-.4c.085,0-.083-.495-.083-.495l.193.567a19.4,19.4,0,0,0-4.259,1.835Z" transform="translate(-773.158 -612.41)" fill="#c1b35d" fill-rule="evenodd" opacity="0.5" style="mix-blend-mode: multiply;isolation: isolate"/>
                      <path id="Path_32176" data-name="Path 32176" d="M775.218,621.121s.183-.8,1.67-1.475,2.166-.1,2.166-.1l-.252-.484.518-.678a14.219,14.219,0,0,0-5.156,2.269l.89-.015Z" transform="translate(-772.958 -614.663)" fill="#b94e52" fill-rule="evenodd" opacity="0.5" style="mix-blend-mode: multiply;isolation: isolate"/>
                      <path id="Path_32177" data-name="Path 32177" d="M794.29,688.379a1.99,1.99,0,0,0,1.862,1.137c1.242-.152,7.66-3.234,8.359-3.869a2.336,2.336,0,0,0,.492-1.883l.84,1.96-10.716,4.618Z" transform="translate(-787.41 -661.611)" fill-rule="evenodd" opacity="0.5" fill="url(#linear-gradient-28)" style="mix-blend-mode: multiply;isolation: isolate"/>
                      <path id="Path_32178" data-name="Path 32178" d="M777.324,640.645c-.607,1.139,4.392,12.21,5.744,12.845s7.091-1.9,7.565-3.077-4.588-12.878-5.625-13.309C784.018,636.692,777.965,639.443,777.324,640.645Z" transform="translate(-775.19 -628.074)" fill="#b94e52" opacity="0.5" style="mix-blend-mode: multiply;isolation: isolate"/>
                      <path id="Path_32179" data-name="Path 32179" d="M778.163,641.04c-.59,1.123,4.357,12.086,5.685,12.719s6.945-1.844,7.4-3.009S786.7,638,785.683,637.572C784.71,637.161,778.786,639.854,778.163,641.04Z" transform="translate(-775.794 -628.409)" fill="url(#linear-gradient-29)"/>
                      <path id="Path_32180" data-name="Path 32180" d="M775.667,633.9c-1.093.253.1-2.191.667-2.864s.026.926.511,1.472S776.07,633.8,775.667,633.9Z" transform="translate(-773.716 -623.627)" fill="#fff" fill-rule="evenodd" opacity="0.71" style="mix-blend-mode: soft-light;isolation: isolate"/>
                      <path id="Path_32181" data-name="Path 32181" d="M781.744,635.557c-.264-.427.376-.77.928-.846s.923.2.367.5S781.816,635.673,781.744,635.557Z" transform="translate(-778.357 -626.375)" fill="#fff" fill-rule="evenodd" opacity="0.71"/>
                    </g>
                    <path id="Path_32182" data-name="Path 32182" d="M774.882,646.2l.454,14.676s-.779,3.231,7.832,3.231,8.4-4.018,8.445-4.8-.71-13.443-.71-13.443" transform="translate(-731.799 -571.279)" fill="none" stroke="#707070" stroke-miterlimit="10" stroke-width="0.882" stroke-dasharray="2.351" style="mix-blend-mode: multiply;isolation: isolate"/>
                    <g id="Group_8959" data-name="Group 8959" transform="translate(40.539 64.89)">
                      <g id="Group_8958" data-name="Group 8958">
                        <g id="Group_8957" data-name="Group 8957">
                          <path id="Path_32183" data-name="Path 32183" d="M797.267,614.119l1.036,3.337c-3.513,1.118-13.729,6.048-14.726,6.374s-10.1-1.348-11.053-.984-5.679,2.08-6.311,3.323c-1.5,2.946,2.232,4.227,2.232,4.227h0l.129-1.526c-1.007,1.8,1.049,2.435,1.049,2.435-.607,1.8,1.524,2.255,1.524,2.255a2.131,2.131,0,0,0,.109,2.945c1.449,1.368,3.475,1.947,3.311.715a1.95,1.95,0,0,0-1.063-1.541s.39-1.735,1.7-2.047a33.568,33.568,0,0,0,9.9-3.661c4.531-2.605,19.076-.573,23.454-5.514,1.988-2.242,1.091-8.474.1-12.962C806.062,612.68,801.225,614.546,797.267,614.119Z" transform="translate(-765.857 -611.494)" fill="url(#linear-gradient-30)"/>
                          <path id="Path_32184" data-name="Path 32184" d="M889.694,621.32a34.14,34.14,0,0,0-1.008-9.826c-2.6,1.186-7.435,3.052-11.394,2.625l.342,1.1C882.308,615.331,887.148,617.415,889.694,621.32Z" transform="translate(-845.883 -611.494)" opacity="0.7" fill="url(#linear-gradient-31)" style="mix-blend-mode: multiply;isolation: isolate"/>
                        </g>
                        <path id="Path_32185" data-name="Path 32185" d="M772.351,669.8c-.833-2.317,2.063-3.436,2.063-3.436a5.529,5.529,0,0,0-2.107,1.119,3.6,3.6,0,0,0-1.011,1.787Z" transform="translate(-769.763 -650.898)" opacity="0.4" fill="url(#linear-gradient-32)" style="mix-blend-mode: multiply;isolation: isolate"/>
                        <path id="Path_32186" data-name="Path 32186" d="M777.865,677.233c.543-1.155,2.747-1.784,2.747-1.784a5.548,5.548,0,0,0-3.278,1.53Z" transform="translate(-774.1 -657.422)" opacity="0.4" fill="url(#linear-gradient-33)" style="mix-blend-mode: multiply;isolation: isolate"/>
                        <path id="Path_32187" data-name="Path 32187" d="M782.672,685.8a4.085,4.085,0,0,1,2.361-1.56,7.06,7.06,0,0,0-3.126,1.253Z" transform="translate(-777.383 -663.738)" opacity="0.4" fill="url(#linear-gradient-31)" style="mix-blend-mode: multiply;isolation: isolate"/>
                      </g>
                      <path id="Path_32188" data-name="Path 32188" d="M826.063,611.5c-.218.1-.458.206-.707.313.939,4.432,1.685,10.249-.221,12.4-4.379,4.94-18.923,2.909-23.455,5.514a33.551,33.551,0,0,1-9.9,3.661c-1.309.313-1.7,2.047-1.7,2.047a1.953,1.953,0,0,1,1.063,1.541c.071.537-.273.729-.8.663.954.418,1.736.369,1.632-.415a1.952,1.952,0,0,0-1.063-1.541s.389-1.735,1.7-2.047a33.545,33.545,0,0,0,9.9-3.661c4.532-2.6,19.075-.573,23.455-5.513C827.951,622.216,827.054,615.985,826.063,611.5Z" transform="translate(-783.25 -611.496)" opacity="0.5" fill="url(#linear-gradient-35)" style="mix-blend-mode: multiply;isolation: isolate"/>
                      <path id="Path_32189" data-name="Path 32189" d="M880.585,630.826a3.354,3.354,0,0,1,2.816-.244,4.824,4.824,0,0,0-1.926-.462,3.642,3.642,0,0,0-1.041.223Z" transform="translate(-848.14 -624.865)" opacity="0.7" fill="url(#linear-gradient-36)" style="mix-blend-mode: multiply;isolation: isolate"/>
                    </g>
                    <path id="Path_32190" data-name="Path 32190" d="M884.685,603.088c-5.16,4.453-14.858,3.521-14.858,3.521" transform="translate(-799.982 -540.567)" fill="none" stroke="#fff" stroke-miterlimit="10" stroke-width="1.153"/>
                    <g id="Group_8961" data-name="Group 8961" transform="translate(0 33.503)">
                      <path id="Path_32191" data-name="Path 32191" d="M646.791,516.181l3.505-3.736s-5.474-6.085-16.313-10.408l-1.926,3.415,1.494-3.665s-.948-.446-2.221-.892l-1.206,4.44.414-4.9a1.366,1.366,0,0,0-.612-.3,17.94,17.94,0,0,1-.746,5.831Z" transform="translate(-627.164 -500.137)" fill="url(#linear-gradient-37)"/>
                      <path id="Path_32192" data-name="Path 32192" d="M640.393,539.905s-6.227-6.5-18.362-10.647C622.031,529.258,629.609,537.229,640.393,539.905Z" transform="translate(-622.031 -521.05)" fill="url(#linear-gradient-38)"/>
                      <path id="Path_32193" data-name="Path 32193" d="M640.393,533l1.772-2.319s-6.184-6.649-18.926-11.037l-1.208,2.71A62.553,62.553,0,0,1,640.393,533Z" transform="translate(-622.031 -514.146)" fill="url(#linear-gradient-39)"/>
                      <path id="Path_32194" data-name="Path 32194" d="M640.886,505.989l.3.476-1.8,3.189Z" transform="translate(-634.499 -504.339)" fill="url(#linear-gradient-40)"/>
                      <g id="Group_8960" data-name="Group 8960" transform="translate(0.73 5.499)" opacity="0.2" style="mix-blend-mode: multiply;isolation: isolate">
                        <path id="Path_32195" data-name="Path 32195" d="M650.645,542.524l-2.707,2a49.879,49.879,0,0,0-6.374-2.786c-2.1-.585-.977.828-.977.828l-.328-.232s-1.554-3.061,7.028,1.742l2.208-2.348Z" transform="translate(-635.772 -535.251)" fill="#ac4b52"/>
                        <path id="Path_32196" data-name="Path 32196" d="M643.755,538.111s-1.574,1.98-2.791,2.026c0,0-2.6-1.255-5-2.358s-2.318.219-2.318.219l-.463-.367c.016-1.549,2.878.012,7.59,2.3a10.472,10.472,0,0,0,1.978-2.448Z" transform="translate(-630.771 -532.114)" fill="#ac4b52"/>
                        <path id="Path_32197" data-name="Path 32197" d="M640.865,525.99a3.2,3.2,0,0,1-3.532,1.381c-2.227-.7-6.075-5.96-6.075-5.96l.355.136s3.365,5.01,5.623,5.626a2.8,2.8,0,0,0,3.255-1.4Z" transform="translate(-629.388 -520.913)" fill="#ac4b52"/>
                        <path id="Path_32198" data-name="Path 32198" d="M650.055,529.575s-1.366,1.858-2.855,1.11-1.651-3.394-1.651-3.394l.5.243s-.1,2.156,1.265,2.926,2.291-1.132,2.291-1.132Z" transform="translate(-639.65 -525.136)" fill="#ac4b52"/>
                        <path id="Path_32199" data-name="Path 32199" d="M658.067,548.687s-1.72,1.726-3.175,1.536c0,0-1.486-.717-4.891-1.942s-2.22.112-2.22.112l.26.151s-.479-.948,2.2-.022a58.605,58.605,0,0,1,5.426,2.254s2.27-.282,2.95-1.643Z" transform="translate(-641.11 -539.838)" fill="#ac4b52"/>
                        <path id="Path_32200" data-name="Path 32200" d="M661.311,551.57s-1.033,1.957-2.675,1.831c0,0-2.087-.9-4.811-1.876s-2.677-.308-2.677-.308l.2.081s-.531-.809,2.928.49,4.639,1.824,4.639,1.824a3.9,3.9,0,0,0,2.5-1.956Z" transform="translate(-643.671 -542.159)" fill="#ac4b52"/>
                        <path id="Path_32201" data-name="Path 32201" d="M667.249,558.494a15.244,15.244,0,0,0-5.1-2.782c-2.844-.822-1.7.192-1.7.192l.53.262s-.617-.807,1.236-.32a18.978,18.978,0,0,1,4.672,2.58Z" transform="translate(-650.189 -545.315)" fill="#ac4b52"/>
                        <path id="Path_32202" data-name="Path 32202" d="M628.1,524.085s-2.552-2.433-3-4.44l-.478,1.072s.12,1.019,2.638,2.987a5.478,5.478,0,0,0-2.526-.529l.4.368A5.218,5.218,0,0,1,628.1,524.085Z" transform="translate(-624.622 -519.645)" fill="#ac4b52"/>
                      </g>
                      <path id="Path_32203" data-name="Path 32203" d="M639.429,539.111a45.559,45.559,0,0,0-9.516-6.493c-5.972-3.118-7.882-3.36-7.882-3.36S632.649,533.242,639.429,539.111Z" transform="translate(-622.031 -521.05)" fill="#d39134"/>
                      <path id="Path_32204" data-name="Path 32204" d="M679.626,562.883s.846.3,1,.1-.541-.887-.541-.887,1.005.839,1.674,1.39C681.754,563.489,680.35,563.125,679.626,562.883Z" transform="translate(-663.392 -544.634)" fill="#d39134"/>
                      <path id="Path_32205" data-name="Path 32205" d="M641.482,532.326s.908-1.2.8-1.906-6.827-5.618-11.691-7.85-6.777-2.3-6.777-2.3l-.983,1.578.984-2.206a51.542,51.542,0,0,1,18.926,11.037Z" transform="translate(-622.603 -514.146)" fill="#8d2a51" opacity="0.2" style="mix-blend-mode: multiply;isolation: isolate"/>
                      <path id="Path_32206" data-name="Path 32206" d="M646.887,525.77l3.021-3.22a31.3,31.3,0,0,1-3.1,3.006c-.2-.08.643-1.108.643-1.108s-.728.866-1.078.7,3.019-4.076,3.019-4.076-3.094,3.61-3.556,3.513,2.182-3.407,2.182-3.407-2.286,2.916-2.673,2.951-2.689-2.13-4.066-3.2c-.384-.3,2.144-4.328,2.144-4.328s-2.442,4.078-2.741,3.963,2.107-4.33,2.107-4.33l-.115-.067s-2.265,4.172-2.728,4.076.426-1.83.426-1.83-.795,1.41-1.385,1.331,1.385-4.912,1.385-4.912l-.259-.15s-1.625,4.5-2.518,4.342.154-2.853.154-2.853-.875,2.405-1.167,2.41,1.624-4.9,1.624-4.9l-.381-.186s-1.5,4.738-1.989,4.484.718-3.709.718-3.709-1.127,3.364-1.765,3.275-.442-1.227-.442-1.227a2.6,2.6,0,0,1-1.918.378c-.868-.3-.335-1.55-.335-1.55s-.32.859-.563.972-1.289-.382-1.39-.457.078-.732.078-.732a3.414,3.414,0,0,1-.435.526,4.382,4.382,0,0,1-.421-.171l-.052.24A56.6,56.6,0,0,1,646.887,525.77Z" transform="translate(-627.26 -509.726)" fill="url(#linear-gradient-41)" style="mix-blend-mode: multiply;isolation: isolate"/>
                      <path id="Path_32207" data-name="Path 32207" d="M688.505,535.748a35.951,35.951,0,0,1-3,3.576.793.793,0,0,1-.635,0l2.575-4.44Z" transform="translate(-667.158 -525.086)" fill="#f5ded4" opacity="0.71" style="mix-blend-mode: soft-light;isolation: isolate"/>
                      <path id="Path_32208" data-name="Path 32208" d="M685.738,533.84l-2.864,4.239,2.724-4.347Z" transform="translate(-665.724 -524.262)" fill="#f5ded4" opacity="0.71" style="mix-blend-mode: soft-light;isolation: isolate"/>
                      <path id="Path_32209" data-name="Path 32209" d="M634.471,503.182s-1.987,4.88-2.063,4.908-.177-.1-.177-.1a1.828,1.828,0,0,1,.078-.732l1.206-4.44Z" transform="translate(-629.349 -502.066)" fill="#f5ded4" opacity="0.71" style="mix-blend-mode: soft-light;isolation: isolate"/>
                      <path id="Path_32210" data-name="Path 32210" d="M667.8,517.027l-.331.571-.046-.769Z" transform="translate(-654.626 -512.124)" fill="#c76653" opacity="0.5" style="mix-blend-mode: multiply;isolation: isolate"/>
                      <path id="Path_32211" data-name="Path 32211" d="M653.7,510.122l-.163.453.011-.492Z" transform="translate(-644.656 -507.279)" fill="#c76653" opacity="0.5" style="mix-blend-mode: multiply;isolation: isolate"/>
                      <path id="Path_32212" data-name="Path 32212" d="M691.022,532.213l-.893.937s.546-1.026.463-1.186a1.12,1.12,0,0,0-.44-.361c-.061-.019-.177.106-.177.106l-.034-.347A8.126,8.126,0,0,1,691.022,532.213Z" transform="translate(-670.8 -522.561)" fill="#c76653" opacity="0.5" style="mix-blend-mode: multiply;isolation: isolate"/>
                    </g>
                    <path id="Path_32213" data-name="Path 32213" d="M668.775,558.795c-.315.608-.465.868-.465.868a5.551,5.551,0,0,1,1.851.57Z" transform="translate(-655.266 -508.759)" opacity="0.7" fill="url(#linear-gradient-42)" style="mix-blend-mode: multiply;isolation: isolate"/>
                    <g id="Group_8962" data-name="Group 8962" transform="translate(2.25 41.348)">
                      <path id="Path_32214" data-name="Path 32214" d="M635.406,527.981c-1.7-.2-4.044,2.4-5.093,4.044s.974,3.445.974,3.445a3.005,3.005,0,0,0,2.022,1.873,3.268,3.268,0,0,0,2.62,1.317,2.463,2.463,0,0,0,3,1.3c2.172-.6,4.419-7.115,3.445-7.938a2.226,2.226,0,0,0-1.722-.674,1.831,1.831,0,0,0-1.8-1.573,2.3,2.3,0,0,0-2.543-.974A.97.97,0,0,0,635.406,527.981Z" transform="translate(-630.012 -527.97)" fill="url(#linear-gradient-43)"/>
                      <path id="Path_32215" data-name="Path 32215" d="M642.425,529.777c-1.419.81-3.9,4.059-3.9,4.059a17.454,17.454,0,0,1,2.477-3.249,4.79,4.79,0,0,0,1.224-1.263Z" transform="translate(-636.128 -528.942)" opacity="0.5" fill="url(#linear-gradient-44)" style="mix-blend-mode: multiply;isolation: isolate"/>
                      <path id="Path_32216" data-name="Path 32216" d="M651.9,532.845c-1.186.425-3.718,4.247-3.718,4.247.508-1.954,3.138-3.79,3.153-4.851C651.335,532.241,651.821,532.583,651.9,532.845Z" transform="translate(-643.061 -531.037)" opacity="0.5" fill="url(#linear-gradient-45)" style="mix-blend-mode: multiply;isolation: isolate"/>
                      <path id="Path_32217" data-name="Path 32217" d="M659.388,538.072a15.179,15.179,0,0,0-3.282,5.005c1.137-4.021,2.629-4.025,3-5.749A2.7,2.7,0,0,1,659.388,538.072Z" transform="translate(-648.751 -534.69)" opacity="0.5" fill="url(#linear-gradient-46)" style="mix-blend-mode: multiply;isolation: isolate"/>
                    </g>
                  </g>
                </g>
              </g>
            </g>
          </g>
        </g>
      </g>
    </g>
  </g>
</svg>
