<svg xmlns="http://www.w3.org/2000/svg" xmlns:xlink="http://www.w3.org/1999/xlink" width="113.782" height="104.844" viewBox="0 0 113.782 104.844">
  <defs>
    <linearGradient id="linear-gradient" y1="0.5" x2="1" y2="0.5" gradientUnits="objectBoundingBox">
      <stop offset="0" stop-color="#273d9b"/>
      <stop offset="1" stop-color="#1d91d8"/>
    </linearGradient>
  </defs>
  <g id="Group_9066" data-name="Group 9066" transform="translate(-1136 -875.156)">
    <g id="Group_9059" data-name="Group 9059" transform="translate(32)">
      <g id="Group_9058" data-name="Group 9058">
        <g id="Group_8978" data-name="Group 8978" transform="translate(1067.085 728.95)">
          <path id="Path_32219" data-name="Path 32219" d="M320.7,170.968l7.7-3.091.269,1.225-7.8,2.689Z" transform="translate(-191.917 -14.655)" fill="#53bca8"/>
          <path id="Path_32220" data-name="Path 32220" d="M329.562,171.9l-7.888,2.988-.448-1.345,7.8-3.078Z" transform="translate(-192.271 -16.403)" fill="#68d8c4"/>
          <path id="Path_32221" data-name="Path 32221" d="M322.7,177.193s.867,2.988.956,2.958,7.893-3.018,7.893-3.018l-.99-2.241Z" transform="translate(-193.27 -19.399)" fill="#53bca8"/>
          <path id="Path_32222" data-name="Path 32222" d="M333.275,181.814l1.077,2.587-7.381,3.09-1.315-2.659Z" transform="translate(-195.267 -24.081)" fill="#68d8c4"/>
          <path id="Path_32223" data-name="Path 32223" d="M336.608,188.644l1.314,2.479-7.559,3.467-.972-2.782Z" transform="translate(-197.793 -28.7)" fill="#53bca8"/>
          <path id="Path_32224" data-name="Path 32224" d="M331.96,199.394l7.7-3.091.269,1.225-7.8,2.689Z" transform="translate(-199.531 -33.879)" fill="#68d8c4"/>
          <path id="Path_32225" data-name="Path 32225" d="M340.82,200.321l-7.888,2.988-.448-1.345,7.8-3.078Z" transform="translate(-199.885 -35.627)" fill="#53bca8"/>
          <path id="Path_32226" data-name="Path 32226" d="M333.96,205.618s.867,2.988.956,2.958,7.893-3.018,7.893-3.018l-.99-2.241Z" transform="translate(-200.883 -38.622)" fill="#68d8c4"/>
          <path id="Path_32227" data-name="Path 32227" d="M344.533,210.24l1.077,2.587-7.381,3.09-1.315-2.659Z" transform="translate(-202.881 -43.304)" fill="#53bca8"/>
          <path id="Path_32228" data-name="Path 32228" d="M347.866,217.07,348.933,220l-7.312,3.018-.972-2.782Z" transform="translate(-205.407 -47.923)" fill="#68d8c4"/>
          <path id="Path_32229" data-name="Path 32229" d="M341.625,226.621l7.7-3.091.269,1.225-7.8,2.689Z" transform="translate(-206.067 -52.291)" fill="#53bca8"/>
          <path id="Path_32230" data-name="Path 32230" d="M350.484,227.548l-7.888,2.988-.448-1.345,7.8-3.078Z" transform="translate(-206.421 -54.039)" fill="#68d8c4"/>
          <path id="Path_32231" data-name="Path 32231" d="M343.625,232.845s.866,2.988.956,2.958,7.893-3.018,7.893-3.018l-.99-2.241Z" transform="translate(-207.419 -57.035)" fill="#53bca8"/>
          <path id="Path_32232" data-name="Path 32232" d="M354.2,237.467l1.077,2.587-7.382,3.09-1.315-2.659Z" transform="translate(-209.417 -61.717)" fill="#68d8c4"/>
          <path id="Path_32233" data-name="Path 32233" d="M357.53,244.3l1.314,2.479-7.559,3.467-.972-2.782Z" transform="translate(-211.943 -66.336)" fill="#53bca8"/>
          <path id="Path_32234" data-name="Path 32234" d="M352.883,255.046l7.7-3.091.269,1.225-7.8,2.689Z" transform="translate(-213.68 -71.515)" fill="#68d8c4"/>
          <path id="Path_32235" data-name="Path 32235" d="M361.743,255.974l-7.888,2.988-.448-1.345,7.8-3.078Z" transform="translate(-214.034 -73.263)" fill="#53bca8"/>
          <path id="Path_32236" data-name="Path 32236" d="M354.883,261.271s.867,2.988.956,2.958,7.62-3.018,7.62-3.018l-.717-2.241Z" transform="translate(-215.033 -76.259)" fill="#68d8c4"/>
          <path id="Path_32237" data-name="Path 32237" d="M365.456,265.892l1.077,2.587-7.381,3.09-1.315-2.659Z" transform="translate(-217.03 -80.94)" fill="#53bca8"/>
          <path id="Path_32238" data-name="Path 32238" d="M368.789,272.723l1.465,2.733-7.71,3.213-.972-2.782Z" transform="translate(-219.556 -85.559)" fill="#68d8c4"/>
          <path id="Path_32239" data-name="Path 32239" d="M189.727,222.178a2.072,2.072,0,0,1-1.9-1.293s-2.012-6.4-1.6-7.472a1.194,1.194,0,0,1,1.93-.745Z" transform="translate(-100.935 -44.75)" fill="#ef8181"/>
          <path id="Path_32240" data-name="Path 32240" d="M134.1,348.784l-1.669,4.23-4.068-4.23-11.116,5.02,9.235,13.332a7.6,7.6,0,0,0,7.355,3.193l1.965-.288a7.6,7.6,0,0,0,5.965-4.726l4.658-11.779Z" transform="translate(-54.324 -136.997)" fill="#f7adad"/>
          <path id="Path_32241" data-name="Path 32241" d="M176.015,354.35l-9.469-2.57-.894,2.023h0l6.631,4.7a13.6,13.6,0,0,1-6.54,13.926,7.537,7.537,0,0,0,.828-.071l1.965-.288a7.6,7.6,0,0,0,5.965-4.726l4.658-11.779Z" transform="translate(-87.061 -139.024)" fill="#ef8181"/>
          <path id="Path_32242" data-name="Path 32242" d="M95.875,311.9a32.12,32.12,0,0,0,11.637-6.98,1.8,1.8,0,0,0,.21-2.3l-.561-.8a1.5,1.5,0,0,0-1.123-.633h0L99.072,292.8l1.21-4.1s.125-9.66-5.234-10.48c0,0-.875-1.859-3.664-1.094l-2.3,1.961a2.108,2.108,0,0,0-2.461,1.429s-1.641-.547-2.57,1.914c0,0-2.352.273-2.3,3.664l1.761,6.036,5.268,3.944,5.13,11.309a1.8,1.8,0,0,0-.538,1.285,4.7,4.7,0,0,0,.686,2.2C94.412,311.475,95.193,312.12,95.875,311.9Z" transform="translate(-30.326 -88.413)" fill="#facb61"/>
          <path id="Path_32243" data-name="Path 32243" d="M85.4,299.573l2.54,4.6s2.257,2.689,6.106,0c0,0,6.713-4.216,6.928-4.6s-2.936-5.968-2.936-5.968Z" transform="translate(-32.789 -99.682)" fill="#d3691d" opacity="0.3"/>
          <path id="Path_32244" data-name="Path 32244" d="M333.826,350.169l4.522,20.129a2.931,2.931,0,0,1-1.683,3.324,19.466,19.466,0,0,1-12.362.983l-1.453-11.2,1.873-.652-2.39-8.635Z" transform="translate(-193.02 -137.934)" fill="#f7adad"/>
          <path id="Path_32245" data-name="Path 32245" d="M324.724,370.07l-.6.21.5,1.767,4.707-2.157-4.707-8.456-1-.439-1.28.439Z" transform="translate(-193.02 -145.256)" fill="#ef8181"/>
          <path id="Path_32246" data-name="Path 32246" d="M321.1,354.555l.928,3.034,11.648-2.811-.517-2.3Z" transform="translate(-192.189 -139.494)" fill="#ef8181"/>
          <path id="Path_32247" data-name="Path 32247" d="M162.309,293.818s9.4,4.482,13.855,4.213l2.033,9.233-1.847,19.81,40.482-4.571-3.406-26.265a61.012,61.012,0,0,0,11.944-1.551,1.815,1.815,0,0,0,1.135-2.659l-5.887-13.2A9.377,9.377,0,0,0,216,273.965l-21.493-9.375-13.2,4.508-10,5.587a10.52,10.52,0,0,0-4.228,4.358A59.7,59.7,0,0,0,162.309,293.818Z" transform="translate(-84.801 -80.059)" opacity="0.3" fill="url(#linear-gradient)" style="isolation: isolate"/>
          <path id="Path_32248" data-name="Path 32248" d="M208.04,266.582a8.84,8.84,0,0,0-2.775,2.3,44.143,44.143,0,0,0-2.6,9.222c-1.2,6.412-1.858,13.756-1.858,13.756l3.427,14.929-2.725,23.845h40.823l-2.392-34.287-5.408-12.685s-1.8-5.393-2.524-7.227c-1.131-2.868-6.126-10.7-6.126-10.7l-4.044-1.848s6.448,9.754,7.574,13.443c.673,2.207.728,9.2.728,9.2s-13.446,3.854-25.727,2.241l.627-10.04.7-5.395Z" transform="translate(-110.834 -79.581)" fill="#330b37"/>
          <line id="Line_53" data-name="Line 53" x1="84.62" y2="22.545" transform="translate(42.93 179.536)" fill="none" stroke="#2c65a8" stroke-miterlimit="10" stroke-width="3"/>
          <path id="Path_32249" data-name="Path 32249" d="M185.855,169.227l4.076,19.206a2.685,2.685,0,0,0,.908,1.5c1.837,1.533,3.943,3.372,5.608,4.627l-.59,6.342a1.4,1.4,0,0,0,.569,1.636,7.783,7.783,0,0,0,5.522.842s7.257.6,8.653-7.939l.108-6.422s.99-3.28,1.146-4.408c.587-4.239.357-17.113.357-17.113s-3.695-9.689-15.765-9.278C196.448,158.225,183.474,160.934,185.855,169.227Z" transform="translate(-100.527 -8.119)" fill="#f7adad"/>
          <path id="Path_32250" data-name="Path 32250" d="M204.991,165.957s9.495.377,12.266,1.688c0,0,3.137-.957,5.552,7.229l-.935-10.605-2.084-2.106S208.009,162.133,204.991,165.957Z" transform="translate(-113.665 -10.79)" fill="#30313f"/>
          <path id="Path_32251" data-name="Path 32251" d="M228.042,263.273a9.48,9.48,0,0,1-9.487,2.342l-.3,3.523S225.408,269.118,228.042,263.273Z" transform="translate(-122.634 -79.169)" fill="#ef8181"/>
          <path id="Path_32252" data-name="Path 32252" d="M177.167,171.728h-.411l-1.806-3.941s-2.217-3.8-.93-6.623a5.9,5.9,0,0,1-4.379-3.64s2.929-4.516,10.045-6.3a9.4,9.4,0,0,0-5.225-.72.422.422,0,0,1-.39-.657c.82-1.177,2.943-3.356,7.531-3.6,4.066-.22,12.538.3,15.494,5.724l-3.26,3.335s-1.24,1.92-3.777.575c-2.484-1.317-7.818-2.089-11.221.766-1.158.972-3.525,2.7-3.678,4.8Z" transform="translate(-89.758 0)" fill="#5f4e6d"/>
          <path id="Path_32253" data-name="Path 32253" d="M255.616,176.4l-4.206,7.247-1.57-.453.291-7.191s-.785-6.767-4.738-7.418l2.71-4.754a9.68,9.68,0,0,1,6.779,7.246Z" transform="translate(-140.988 -11.919)" fill="#5f4e6d"/>
          <line id="Line_55" data-name="Line 55" x2="2.807" y2="11.474" transform="translate(88.556 206.498)" fill="none" stroke="#30313f" stroke-miterlimit="10" stroke-width="1.618"/>
          <path id="Path_32263" data-name="Path 32263" d="M169.3,342.415s8.174,4.661,10.9,4.841" transform="translate(-89.528 -132.69)" fill="none" stroke="#30313f" stroke-miterlimit="10" stroke-width="1.618"/>
          <path id="Path_32264" data-name="Path 32264" d="M309.911,337.072s-4.661-11.564-4.93-12.1" transform="translate(-181.286 -120.893)" fill="none" stroke="#30313f" stroke-miterlimit="10" stroke-width="1.618"/>
          <path id="Path_32265" data-name="Path 32265" d="M109.767,283.8A8.8,8.8,0,0,1,112.4,287.6l1.286,5.048a.922.922,0,0,0,1.4.541l.965-.638a1.515,1.515,0,0,0,.655-1.557,36.76,36.76,0,0,0-2.027-6.274" transform="translate(-49.268 -93.054)" fill="#facb61" stroke="#30313f" stroke-miterlimit="10" stroke-width="1.669"/>
          <path id="Path_32266" data-name="Path 32266" d="M101.552,285.4s3.018,2.958,3.376,6.3l.316,2.191a1,1,0,0,0,1.535.7l1.145-.734a1,1,0,0,0,.455-.963c-.225-1.823-1.062-7.149-3.379-9.652" transform="translate(-43.712 -92.679)" fill="#facb61" stroke="#30313f" stroke-miterlimit="10" stroke-width="1.669"/>
          <path id="Path_32267" data-name="Path 32267" d="M93.245,292.192s3.584,4.075,4.053,8.2a.99.99,0,0,0,1.488.728l.59-.347a.988.988,0,0,0,.49-.848c0-1.624-.316-6.342-3.932-9.2" transform="translate(-38.094 -97.736)" fill="#facb61" stroke="#30313f" stroke-miterlimit="10" stroke-width="1.669"/>
          <path id="Path_32268" data-name="Path 32268" d="M85.4,298.789s2.557,5.355,4.266,7.34a1.293,1.293,0,0,0,1.7.228h0a1.288,1.288,0,0,0,.562-1.223,16.547,16.547,0,0,0-3.646-8.583" transform="translate(-32.789 -101.674)" fill="#facb61" stroke="#30313f" stroke-miterlimit="10" stroke-width="1.669"/>
          <path id="Path_32269" data-name="Path 32269" d="M320.21,349.231s6.7,0,10.553-1.554" transform="translate(-191.584 -136.249)" fill="none" stroke="#30313f" stroke-miterlimit="10" stroke-width="1.618"/>
          <path id="Path_32270" data-name="Path 32270" d="M326.329,388.205s-2.271-.777-8.426,1.494" transform="translate(-190.024 -163.57)" fill="none" stroke="#30313f" stroke-miterlimit="10" stroke-width="1.618"/>
          <g id="Group_8976" data-name="Group 8976" transform="translate(85.812 202.203)">
            <g id="Group_8973" data-name="Group 8973" transform="translate(1.624)">
              <path id="Path_32271" data-name="Path 32271" d="M196.124,347.306l-3.148,9.333h15.171l-6.483-9.333Z" transform="translate(-192.976 -338.201)" fill="#68d8c4"/>
              <rect id="Rectangle_8690" data-name="Rectangle 8690" width="6.273" height="3.154" rx="1.577" transform="translate(2.765 6.224)" fill="#7b2a3b"/>
              <path id="Rectangle_8691" data-name="Rectangle 8691" d="M0,0H.564A1.123,1.123,0,0,1,1.687,1.123v.556A1.123,1.123,0,0,1,.564,2.8H0a0,0,0,0,1,0,0V0A0,0,0,0,1,0,0Z" transform="translate(13.576 0.886)" fill="#7b2a3b"/>
              <path id="Path_32272" data-name="Path 32272" d="M229.016,329.869a7.588,7.588,0,0,1,1.386,2.5c.065.253.357.279.43.032a4.541,4.541,0,0,0-.172-3.352S229.039,328.606,229.016,329.869Z" transform="translate(-217.349 -325.805)" fill="#fff"/>
              <path id="Path_32273" data-name="Path 32273" d="M194.487,326.045c1.226-.013,6.684-.007,8.068-.006a.631.631,0,0,0,.511-.259l2-2.726,1.809.05a.721.721,0,0,0,.74-.69l.129-1.809a1.4,1.4,0,0,0-1.177-1.425l-7.111,0a.966.966,0,0,0-.648.225l-4.619,3.87a1.255,1.255,0,0,0-.393,1.332l.37,1.2A.33.33,0,0,0,194.487,326.045Z" transform="translate(-193.493 -319.18)" fill="#facb61"/>
              <line id="Line_56" data-name="Line 56" y2="1.942" transform="translate(3.769 7.014)" fill="none" stroke="#facb61" stroke-linecap="round" stroke-linejoin="round" stroke-width="0.889"/>
              <line id="Line_57" data-name="Line 57" y2="1.942" transform="translate(4.788 7.014)" fill="none" stroke="#facb61" stroke-linecap="round" stroke-linejoin="round" stroke-width="0.889"/>
              <line id="Line_58" data-name="Line 58" y2="1.942" transform="translate(5.806 7.014)" fill="none" stroke="#facb61" stroke-linecap="round" stroke-linejoin="round" stroke-width="0.889"/>
              <line id="Line_59" data-name="Line 59" y2="1.942" transform="translate(6.825 7.014)" fill="none" stroke="#facb61" stroke-linecap="round" stroke-linejoin="round" stroke-width="0.889"/>
              <line id="Line_60" data-name="Line 60" y2="1.942" transform="translate(7.844 7.014)" fill="none" stroke="#facb61" stroke-linecap="round" stroke-linejoin="round" stroke-width="0.889"/>
              <path id="Path_32274" data-name="Path 32274" d="M200.143,331.178l6.887.048,1.247-1.442" transform="translate(-197.823 -326.351)" fill="none" stroke="#30313f" stroke-miterlimit="10" stroke-width="0.889"/>
            </g>
            <g id="Group_8974" data-name="Group 8974" transform="translate(26.936 6.212)">
              <path id="Path_32275" data-name="Path 32275" d="M274.267,362.344l-3.1,5.925,11.267.675-3.278-6.055Z" transform="translate(-271.165 -354.583)" fill="#fff"/>
              <rect id="Rectangle_8692" data-name="Rectangle 8692" width="5.568" height="2.8" rx="1.4" transform="translate(3.047 5.182) rotate(6.357)" fill="#7b2a3b"/>
              <path id="Rectangle_8693" data-name="Rectangle 8693" d="M0,0H.5a1,1,0,0,1,1,1V1.49a1,1,0,0,1-1,1H0a0,0,0,0,1,0,0V0A0,0,0,0,1,0,0Z" transform="matrix(0.994, 0.111, -0.111, 0.994, 13.108, 1.535)" fill="#d3691d"/>
              <path id="Path_32276" data-name="Path 32276" d="M305.492,349.74a6.731,6.731,0,0,1,.976,2.345c.033.23.287.281.376.07a4.031,4.031,0,0,0,.178-2.973S305.637,348.627,305.492,349.74Z" transform="translate(-294.379 -345.588)" fill="#7b2a3b"/>
              <path id="Path_32277" data-name="Path 32277" d="M274.537,343.942c1.083.109,5.9.65,7.118.788a.56.56,0,0,0,.476-.179l2.033-2.208,1.591.222a.64.64,0,0,0,.721-.536l.291-1.583a1.247,1.247,0,0,0-.9-1.373l-6.273-.7a.856.856,0,0,0-.594.135l-4.455,2.96a1.115,1.115,0,0,0-.478,1.137l.209,1.094A.293.293,0,0,0,274.537,343.942Z" transform="translate(-273.116 -338.369)" fill="#68d8c4"/>
              <line id="Line_61" data-name="Line 61" x1="0.191" y2="1.713" transform="translate(3.664 5.978)" fill="none" stroke="#facb61" stroke-linecap="round" stroke-linejoin="round" stroke-width="0.789"/>
              <line id="Line_62" data-name="Line 62" x1="0.191" y2="1.713" transform="translate(4.563 6.078)" fill="none" stroke="#facb61" stroke-linecap="round" stroke-linejoin="round" stroke-width="0.789"/>
              <line id="Line_63" data-name="Line 63" x1="0.191" y2="1.713" transform="translate(5.462 6.178)" fill="none" stroke="#facb61" stroke-linecap="round" stroke-linejoin="round" stroke-width="0.789"/>
              <line id="Line_64" data-name="Line 64" x1="0.191" y2="1.713" transform="translate(6.36 6.278)" fill="none" stroke="#facb61" stroke-linecap="round" stroke-linejoin="round" stroke-width="0.789"/>
              <line id="Line_65" data-name="Line 65" x1="0.191" y2="1.713" transform="translate(7.259 6.378)" fill="none" stroke="#facb61" stroke-linecap="round" stroke-linejoin="round" stroke-width="0.789"/>
              <path id="Path_32278" data-name="Path 32278" d="M279.789,349.535l6.071.719,1.242-1.15" transform="translate(-276.997 -345.629)" fill="none" stroke="#30313f" stroke-miterlimit="10" stroke-width="0.789"/>
            </g>
            <g id="Group_8975" data-name="Group 8975" transform="translate(13.291 2.122)">
              <path id="Path_32279" data-name="Path 32279" d="M229.016,356.427l6.89-12.474,5.222,1.958v13.054Z" transform="translate(-229.016 -338.055)" fill="#facb61"/>
              <path id="Path_32280" data-name="Path 32280" d="M255.519,332.606l-4.073-1.163a.494.494,0,0,1-.332-.636l1.535-4.458a.912.912,0,0,1,1.113-.58l2.651.757a.912.912,0,0,1,.644,1.053l-.917,4.647A.494.494,0,0,1,255.519,332.606Z" transform="translate(-243.942 -325.734)" fill="#59abe8"/>
              <path id="Rectangle_8694" data-name="Rectangle 8694" d="M1.651,0H7.306A1.651,1.651,0,0,1,8.957,1.651v0A1.467,1.467,0,0,1,7.489,3.118H1.467A1.467,1.467,0,0,1,0,1.651v0A1.651,1.651,0,0,1,1.651,0Z" transform="translate(5.607 3.848) rotate(15.932)" fill="#7b2a3b"/>
            </g>
            <path id="Path_32281" data-name="Path 32281" d="M187.96,369.663l43.553-2.229.73,13.248a4.185,4.185,0,0,1-1.117,3.083h0a30.042,30.042,0,0,1-40.482,3.189l-.331-.258a4.184,4.184,0,0,1-1.6-3.072Z" transform="translate(-187.96 -351.813)" fill="#2c65a8"/>
            <path id="Path_32282" data-name="Path 32282" d="M200.625,356.335l-.872,11.838a3.573,3.573,0,0,0,2.732,3.737l8.387,2.007a1.6,1.6,0,0,0,1.965-1.551V360.33l4.293-.269-3.593-3.887a2.962,2.962,0,0,0-2.042-.941l-9.194-.391A1.612,1.612,0,0,0,200.625,356.335Z" transform="translate(-195.929 -343.296)" fill="#fff"/>
            <path id="Path_32283" data-name="Path 32283" d="M210.239,355.07a46.818,46.818,0,0,0-.929,17.139" transform="translate(-202.151 -343.451)" fill="none" stroke="#30313f" stroke-miterlimit="10" stroke-width="1.334"/>
            <path id="Path_32284" data-name="Path 32284" d="M224.695,355.766a58.377,58.377,0,0,0-.654,18.008" transform="translate(-212.088 -343.922)" fill="none" stroke="#30313f" stroke-miterlimit="10" stroke-width="1.334"/>
            <path id="Path_32285" data-name="Path 32285" d="M239.849,365.823l.111,1.934,4.293-.269Z" transform="translate(-223.051 -350.724)" fill="#30313f"/>
          </g>
          <path id="Path_32286" data-name="Path 32286" d="M267.522,390.146c.525,2.6,2.137,10.917,1.825,13.523a.777.777,0,0,1-.62.668l-1.206.245a1.981,1.981,0,0,1-1.785-.53l-.234-.231-11.3.417a20.489,20.489,0,0,1-12.238,2.033.694.694,0,0,1-.453-.342h0a.756.756,0,0,1,.41-1.113l4.818-.851-6.55.1a2.074,2.074,0,0,1-1.942-1.6l-.239-1.027s-1.673-1.733-.9-3.586a4.323,4.323,0,0,1-.579-1.72,1.562,1.562,0,0,1,1.6-1.711l11.17.323-4.7-2.04a1.319,1.319,0,0,1-.68-1.744h0a1.313,1.313,0,0,1,1.452-.761,42.274,42.274,0,0,1,9.814,2.827,113.256,113.256,0,0,1,11.387-3.48A.779.779,0,0,1,267.522,390.146Z" transform="translate(-134.993 -164.546)" fill="#facb61"/>
          <path id="Path_32287" data-name="Path 32287" d="M287.47,428.206l.234.231a1.981,1.981,0,0,0,1.785.53l1.206-.245a.777.777,0,0,0,.62-.668,7.8,7.8,0,0,0,.037-1.036l-5.6-1.173a12.638,12.638,0,0,0-7.831.869l-8.908,4.058a20.825,20.825,0,0,0,7.16-2.148Z" transform="translate(-156.962 -188.93)" fill="#d3691d" opacity="0.3"/>
          <path id="Path_32288" data-name="Path 32288" d="M249.426,415.352s-6.3.112-11.086-.112" transform="translate(-136.218 -181.94)" fill="none" stroke="#30313f" stroke-miterlimit="10" stroke-width="1.669"/>
          <path id="Path_32289" data-name="Path 32289" d="M250.987,425.132c-.273.094-6.531.239-9.878.194" transform="translate(-138.091 -188.629)" fill="none" stroke="#30313f" stroke-miterlimit="10" stroke-width="1.669"/>
          <line id="Line_66" data-name="Line 66" x2="1.061" y2="11.25" transform="translate(129.313 227.205)" fill="none" stroke="#30313f" stroke-miterlimit="10" stroke-width="1.618"/>
          <path id="Path_32290" data-name="Path 32290" d="M316.288,177.431l13.5,36.552a.533.533,0,0,1-.309.671l-1.2.47s-8.835-4.515-12.66-16.527c0,0-5.079-13.335-1.255-20.558l1.085-.853A.533.533,0,0,1,316.288,177.431Z" transform="translate(-186.671 -20.874)" fill="#d57d63"/>
          <path id="Path_32291" data-name="Path 32291" d="M164.145,361.851s3.282,2.493,4.537,4.958" transform="translate(-86.042 -145.834)" fill="none" stroke="#30313f" stroke-miterlimit="10" stroke-width="1.618"/>
          <path id="Path_32292" data-name="Path 32292" d="M120.527,362.58c.057,0,9.47-4.661,11.307-6.32" transform="translate(-56.545 -142.053)" fill="none" stroke="#30313f" stroke-miterlimit="10" stroke-width="1.669"/>
          <g id="Group_8977" data-name="Group 8977" transform="translate(124.973 176.848)">
            <path id="Path_32293" data-name="Path 32293" d="M309.119,242.027a.262.262,0,0,0-.11.443,3.717,3.717,0,0,1,.817,1.608,3.57,3.57,0,0,1,.039,1.931.257.257,0,0,0,.312.329l4.335-1.131a1.643,1.643,0,0,0,1.175-2l-.29-1.113a1.644,1.644,0,0,0-2-1.176Z" transform="translate(-308.928 -240.859)" fill="#f2a694"/>
          </g>
          <path id="Path_32294" data-name="Path 32294" d="M217.619,289.055s3.52,2.893,9.378.289c2.605-1.158,6.266-2.862,8.239-8.451" transform="translate(-122.205 -91.085)" fill="none" stroke="#30313f" stroke-miterlimit="10" stroke-width="1.618"/>
          <path id="Path_32295" data-name="Path 32295" d="M263.824,206.716s0-4.078,3.421-3.64c1.148.147,1.954,1.674,1.2,4.544-.318,1.2-1.3,4.809-1.3,4.809a2.21,2.21,0,0,1-1.185,1.537c-.575.264-1.286.264-1.834-.79" transform="translate(-153.452 -38.437)" fill="#f7adad"/>
          <path id="Path_32297" data-name="Path 32297" d="M46.894,308.312l-8.432,2.215a2.075,2.075,0,0,0,1.055,4.014l8.431-2.215a.353.353,0,0,0,.251-.431l-.875-3.332A.352.352,0,0,0,46.894,308.312Zm-6.51,5.114a1.217,1.217,0,1,1,.868-1.486A1.217,1.217,0,0,1,40.385,313.426Z" transform="translate(0 -109.619)" fill="#68d8c4"/>
          <path id="Path_32298" data-name="Path 32298" d="M224.756,200.612a.552.552,0,0,0-.326.669,4.81,4.81,0,0,0,.437,1.068.8.8,0,0,0,.975.318,9.407,9.407,0,0,1,5.8-.188.414.414,0,0,0,.533-.353v-.006a.7.7,0,0,0-.213-.544C231.195,200.824,229.1,198.93,224.756,200.612Z" transform="translate(-126.796 -36.335)" fill="#5f4e6d"/>
          <path id="Path_32299" data-name="Path 32299" d="M194.316,207.128a4.954,4.954,0,0,1,5.488-1.583.461.461,0,0,0,.606-.435,3.727,3.727,0,0,0-.259-1.327.52.52,0,0,0-.431-.334,5.679,5.679,0,0,0-5.236,2.284,1.725,1.725,0,0,0-.31,1.17Z" transform="translate(-106.345 -38.691)" fill="#5f4e6d"/>
          <path id="Path_32301" data-name="Path 32301" d="M175.093,169.646s1.45-3.77,8.432-5.815" transform="translate(-93.446 -11.919)" fill="none" stroke="#897799" stroke-miterlimit="10" stroke-width="1"/>
          <path id="Path_32302" data-name="Path 32302" d="M198.485,149.893a21.086,21.086,0,0,1,15.185,2.793" transform="translate(-109.265 -2.229)" fill="none" stroke="#897799" stroke-miterlimit="10" stroke-width="1"/>
        </g>
      </g>
    </g>
  </g>
</svg>
