<svg xmlns="http://www.w3.org/2000/svg" width="30.321" height="20.911" viewBox="0 0 30.321 20.911">
  <g id="Group_9056" data-name="Group 9056" transform="translate(-320.8 -333.451)">
    <g id="visa" transform="translate(320.8 254)">
      <path id="Path_32020" data-name="Path 32020" d="M30.321,98.569a1.792,1.792,0,0,1-1.792,1.792H1.792A1.792,1.792,0,0,1,0,98.569V81.243a1.792,1.792,0,0,1,1.792-1.792H28.529a1.792,1.792,0,0,1,1.792,1.792V98.569Z" transform="translate(0 0)" fill="#fff"/>
      <path id="Path_32021" data-name="Path 32021" d="M35.426,193.777l-.712-3.415a.849.849,0,0,0-.918-.63H30.531l-.029.156A6.713,6.713,0,0,1,35.426,193.777Z" transform="translate(-28.696 -103.75)" fill="#f79f1a"/>
      <g id="Group_8786" data-name="Group 8786" transform="translate(0 79.451)">
        <path id="Path_32022" data-name="Path 32022" d="M186.925,190.892h-2.109l-1.317,7.73H185.6Z" transform="translate(-172.632 -184.292)" fill="#059bbf"/>
        <path id="Path_32023" data-name="Path 32023" d="M69.952,198.7l3.317-7.717H71.037l-2.063,5.272-.22-.8a8.248,8.248,0,0,0-2.918-3.2l1.886,6.447Z" transform="translate(-61.937 -184.376)" fill="#059bbf"/>
        <path id="Path_32024" data-name="Path 32024" d="M247.371,193.994c.008-.878-.556-1.547-1.77-2.1-.738-.357-1.188-.6-1.182-.958,0-.32.381-.664,1.206-.664a3.89,3.89,0,0,1,1.577.3l.191.087.286-1.675a5.462,5.462,0,0,0-1.889-.323c-2.082,0-3.548,1.048-3.561,2.55-.013,1.111,1.048,1.73,1.847,2.1.82.377,1.1.619,1.09.958-.005.518-.654.754-1.259.754a4.421,4.421,0,0,1-1.984-.405l-.269-.124-.3,1.732a6.647,6.647,0,0,0,2.346.411C245.916,196.635,247.355,195.6,247.371,193.994Z" transform="translate(-227.063 -182.192)" fill="#059bbf"/>
        <path id="Path_32025" data-name="Path 32025" d="M343.041,197.59l2.7,0c.063.269.257,1.159.257,1.159h1.955l-1.706-7.725h-1.627a1.048,1.048,0,0,0-1.1.64l-3.13,7.085H342.6S342.959,197.8,343.041,197.59Zm1.444-3.743c-.01.021.175-.447.281-.738l.143.667s.4,1.847.487,2.233h-1.749C343.821,195.564,344.485,193.847,344.485,193.847Z" transform="translate(-320.227 -184.419)" fill="#059bbf"/>
        <path id="Path_32026" data-name="Path 32026" d="M28.529,79.451H1.792A1.792,1.792,0,0,0,0,81.243V83.1H30.321v-1.86A1.792,1.792,0,0,0,28.529,79.451Z" transform="translate(0 -79.451)" fill="#059bbf"/>
      </g>
      <path id="Path_32027" data-name="Path 32027" d="M28.529,374.524H1.792A1.792,1.792,0,0,1,0,372.731v-1.86H30.321v1.86A1.792,1.792,0,0,1,28.529,374.524Z" transform="translate(0 -274.162)" fill="#f79f1a"/>
      <path id="Path_32028" data-name="Path 32028" d="M1.274,98.569V81.243a1.792,1.792,0,0,1,1.792-1.792H1.792A1.792,1.792,0,0,0,0,81.243V98.569a1.792,1.792,0,0,0,1.792,1.792H3.067A1.793,1.793,0,0,1,1.274,98.569Z" transform="translate(0 0)" fill="#202121" opacity="0.15"/>
    </g>
  </g>
</svg>
