<svg xmlns="http://www.w3.org/2000/svg" width="86.964" height="91.465" viewBox="0 0 86.964 91.465">
  <g id="Group_9056" data-name="Group 9056" transform="translate(-41.668 -146.955)">
    <g id="XMLID_3078_" transform="matrix(0.978, -0.208, 0.208, 0.978, 37.988, 160.82)">
      <path id="XMLID_1001_" d="M5,123.321A6.32,6.32,0,0,1,11.321,117H71.69a6.32,6.32,0,0,1,6.321,6.321v36.348a6.32,6.32,0,0,1-6.321,6.321H5" transform="translate(-5 -99.3)" fill="#dfdfdf"/>
      <g id="XMLID_1983_" transform="translate(35.133 0)">
        <path id="XMLID_1989_" d="M307,5h6.321c6.985,0,12.643,7.08,12.643,15.8s-5.658,15.8-12.643,15.8H307" transform="translate(-294.407 -5)" fill="#ffdca4"/>
        <path id="XMLID_1988_" d="M325.964,77.215c0,8.723-5.658,15.8-12.643,15.8H307V72h18.253A18.99,18.99,0,0,1,325.964,77.215Z" transform="translate(-294.407 -61.412)" fill="#ffc96f"/>
        <path id="XMLID_1987_" d="M325.253,138c-1.723,6.163-6.416,10.588-11.932,10.588H307V138Z" transform="translate(-294.407 -116.981)" fill="#ffb234"/>
        <ellipse id="XMLID_1986_" cx="12.5" cy="16" rx="12.5" ry="16" transform="translate(-0.467 -0.333)" fill="#ffdca4"/>
        <ellipse id="XMLID_1985_" cx="9" cy="12.5" rx="9" ry="12.5" transform="translate(3.533 3.667)" fill="#ffc96f"/>
        <path id="XMLID_1984_" d="M248.9,37.643c0-6.558,3.745-11.947,8.534-12.58a6.373,6.373,0,0,0-.948-.063C251.251,25,247,30.658,247,37.643s4.251,12.643,9.482,12.643a6.373,6.373,0,0,0,.948-.063C252.642,49.59,248.9,44.2,248.9,37.643Z" transform="translate(-243.889 -21.839)" fill="#ffb234"/>
      </g>
      <g id="XMLID_1968_" transform="translate(42.353 6.321)">
        <g id="XMLID_1978_" transform="translate(0 2.371)">
          <path id="XMLID_1979_" d="M280.744,74.223H273.79a.782.782,0,0,1-.79-.79V60.79a.782.782,0,0,1,.79-.79h6.954a3.951,3.951,0,0,1,2.371,7.112,3.951,3.951,0,0,1-2.371,7.112Zm-6.163-1.58h6.163a2.371,2.371,0,1,0,0-4.741H274.58Zm0-6.321h6.163a2.371,2.371,0,1,0,0-4.741H274.58Z" transform="translate(-273 -60)" fill="#ffdca4"/>
        </g>
        <g id="XMLID_1976_" transform="translate(2.371)">
          <path id="XMLID_1977_" d="M288,45h1.58v3.161H288Z" transform="translate(-288 -45)" fill="#ffdca4"/>
        </g>
        <g id="XMLID_1974_" transform="translate(6.479)">
          <path id="XMLID_1975_" d="M314,45h1.58v3.161H314Z" transform="translate(-314 -45)" fill="#ffdca4"/>
        </g>
        <g id="XMLID_1972_" transform="translate(2.371 15.803)">
          <path id="XMLID_1973_" d="M288,145h1.58v3.161H288Z" transform="translate(-288 -145)" fill="#ffdca4"/>
        </g>
        <g id="XMLID_1969_" transform="translate(6.479 15.803)">
          <path id="XMLID_1971_" d="M314,145h1.58v3.161H314Z" transform="translate(-314 -145)" fill="#ffdca4"/>
        </g>
      </g>
      <g id="XMLID_2040_" transform="translate(3.4 14.539)">
        <path id="XMLID_2046_" d="M107,97h6.321c6.985,0,12.643,7.08,12.643,15.8s-5.658,15.8-12.643,15.8H107" transform="translate(-94.28 -97)" fill="#ffdca4"/>
        <path id="XMLID_2045_" d="M125.964,169.215c0,8.723-5.658,15.8-12.643,15.8H107V164h18.253A18.99,18.99,0,0,1,125.964,169.215Z" transform="translate(-94.28 -153.412)" fill="#ffc96f"/>
        <path id="XMLID_2044_" d="M125.253,230c-1.723,6.163-6.416,10.588-11.932,10.588H107V230Z" transform="translate(-94.28 -208.981)" fill="#ffb234"/>
        <ellipse id="XMLID_2043_" cx="12.5" cy="16" rx="12.5" ry="16" transform="translate(0.267 0.128)" fill="#ffdca4"/>
        <ellipse id="XMLID_2042_" cx="9.5" cy="12.5" rx="9.5" ry="12.5" transform="translate(3.267 3.128)" fill="#ffc96f"/>
        <path id="XMLID_2041_" d="M48.9,129.643c0-6.558,3.745-11.947,8.534-12.58a6.375,6.375,0,0,0-.948-.063C51.251,117,47,122.658,47,129.643s4.251,12.643,9.482,12.643a6.371,6.371,0,0,0,.948-.063C52.642,141.59,48.9,136.2,48.9,129.643Z" transform="translate(-43.763 -113.839)" fill="#ffb234"/>
      </g>
      <g id="XMLID_2017_" transform="translate(10.746 20.861)">
        <g id="XMLID_2035_" transform="translate(0 2.371)">
          <path id="XMLID_2036_" d="M80.744,166.223H73.79a.783.783,0,0,1-.79-.79V152.79a.782.782,0,0,1,.79-.79h6.954a3.951,3.951,0,0,1,2.371,7.112,3.951,3.951,0,0,1-2.371,7.112Zm-6.163-1.58h6.163a2.371,2.371,0,0,0,0-4.741H74.58Zm0-6.321h6.163a2.371,2.371,0,1,0,0-4.741H74.58Z" transform="translate(-73 -152)" fill="#ffdca4"/>
        </g>
        <g id="XMLID_2024_" transform="translate(2.371)">
          <path id="XMLID_2025_" d="M88,137h1.58v3.161H88Z" transform="translate(-88 -137)" fill="#ffdca4"/>
        </g>
        <g id="XMLID_2022_" transform="translate(6.479)">
          <path id="XMLID_2023_" d="M114,137h1.58v3.161H114Z" transform="translate(-114 -137)" fill="#ffdca4"/>
        </g>
        <g id="XMLID_2020_" transform="translate(2.371 15.803)">
          <path id="XMLID_2021_" d="M88,237h1.58v3.161H88Z" transform="translate(-88 -237)" fill="#ffdca4"/>
        </g>
        <g id="XMLID_2018_" transform="translate(6.479 15.803)">
          <path id="XMLID_2019_" d="M114,237h1.58v3.161H114Z" transform="translate(-114 -237)" fill="#ffdca4"/>
        </g>
      </g>
      <path id="XMLID_1002_" d="M61.892,212.312H11.321A6.32,6.32,0,0,1,5,205.991V157a6.32,6.32,0,0,0,6.321,6.321H61.892a6.32,6.32,0,0,1,6.321,6.321v36.348A6.32,6.32,0,0,1,61.892,212.312Z" transform="translate(-5 -132.979)" fill="#bbbcbc"/>
      <path id="XMLID_1000_" d="M473.321,240.576c0-4.172-2.939-4.773-6.321-4.773V220c3.382,0,6.321.6,6.321,4.773Z" transform="translate(-393.988 -186.023)" fill="#f2fbfa"/>
      <path id="XMLID_999_" d="M286.4,250.2V266c0,4.172-4.172,8.186-16.12,8.186H252.9a7.9,7.9,0,0,1,0-15.8h17.384C282.233,258.386,286.4,254.372,286.4,250.2Z" transform="translate(-207.072 -211.45)" fill="#fff"/>
      <circle id="XMLID_998_" cx="3" cy="3" r="3" transform="translate(42.667 51.667)" fill="#b11f29"/>
      <g id="XMLID_997_" transform="translate(13.591 36.506)">
        <path id="XMLID_259_" d="M98.112,244.692H91v-1.58h6.874l10.715-6.985a.838.838,0,0,1,.427-.126h31.607v1.58h-31.37l-10.715,6.985A.8.8,0,0,1,98.112,244.692Z" transform="translate(-91 -236)" fill="#fff"/>
      </g>
      <g id="Group_8774" data-name="Group 8774" transform="translate(9.067 41.933)">
        <circle id="XMLID_996_" cx="2.5" cy="2.5" r="2.5" transform="translate(-0.4 -0.266)" fill="#b11f29"/>
        <ellipse id="XMLID_995_" cx="2" cy="2.5" rx="2" ry="2.5" transform="translate(11.6 6.734)" fill="#b11f29"/>
        <circle id="XMLID_994_" cx="2" cy="2" r="2" transform="translate(12.6 28.734)" fill="#b11f29"/>
        <circle id="XMLID_993_" cx="2.5" cy="2.5" r="2.5" transform="translate(-0.4 20.734)" fill="#b11f29"/>
      </g>
      <g id="XMLID_992_" transform="translate(13.591 57.524)">
        <path id="XMLID_248_" d="M103.564,377.534H91v-1.58h12.184L108.4,369.3a.779.779,0,0,1,.616-.3h7.112v1.58H109.4l-5.215,6.653A.779.779,0,0,1,103.564,377.534Z" transform="translate(-91 -369)" fill="#fff"/>
      </g>
      <g id="XMLID_991_" transform="translate(25.444 50.571)">
        <path id="XMLID_240_" d="M166,325h13.275v1.58H166Z" transform="translate(-166 -325)" fill="#fff"/>
      </g>
      <g id="XMLID_990_" transform="translate(26.076 71.59)">
        <path id="XMLID_157_" d="M170,458h37.3v1.58H170Z" transform="translate(-170 -458)" fill="#fff"/>
      </g>
    </g>
  </g>
</svg>
